<svg width="22" height="22" viewBox="0 0 22 22" fill="none" xmlns="http://www.w3.org/2000/svg">
<path d="M19.0618 17.6975C20.1388 16.4016 20.888 14.8653 21.2458 13.2186C21.6035 11.5719 21.5595 9.86333 21.1173 8.2373C20.6751 6.61126 19.8477 5.11565 18.7052 3.87699C17.5628 2.63833 16.1388 1.69305 14.5537 1.12112C12.9686 0.549195 11.2691 0.367443 9.59897 0.591243C7.92881 0.815043 6.33711 1.43781 4.95854 2.40686C3.57996 3.37591 2.45506 4.66274 1.67899 6.15849C0.902928 7.65423 0.498528 9.31489 0.500004 11C0.50057 13.4496 1.36381 15.8208 2.93825 17.6975L2.92325 17.7102C2.97575 17.7732 3.03575 17.8272 3.08975 17.8895C3.15725 17.9667 3.23 18.0395 3.29975 18.1145C3.50975 18.3425 3.72575 18.5615 3.95225 18.767C4.02125 18.83 4.0925 18.8885 4.16225 18.9485C4.40225 19.1555 4.649 19.352 4.90475 19.535C4.93775 19.5575 4.96775 19.5867 5.00075 19.61V19.601C6.75733 20.8371 8.85283 21.5005 11.0008 21.5005C13.1487 21.5005 15.2442 20.8371 17.0008 19.601V19.61C17.0338 19.5867 17.063 19.5575 17.0968 19.535C17.3518 19.3512 17.5993 19.1555 17.8393 18.9485C17.909 18.8885 17.9803 18.8292 18.0493 18.767C18.2758 18.5607 18.4918 18.3425 18.7018 18.1145C18.7715 18.0395 18.8435 17.9667 18.9118 17.8895C18.965 17.8272 19.0258 17.7732 19.0783 17.7095L19.0618 17.6975ZM11 4.99998C11.6675 4.99998 12.32 5.19792 12.8751 5.56877C13.4301 5.93962 13.8627 6.46673 14.1181 7.08343C14.3735 7.70013 14.4404 8.37873 14.3102 9.03341C14.1799 9.6881 13.8585 10.2895 13.3865 10.7615C12.9145 11.2335 12.3131 11.5549 11.6584 11.6851C11.0037 11.8154 10.3251 11.7485 9.70845 11.4931C9.09175 11.2376 8.56464 10.805 8.19379 10.25C7.82294 9.69502 7.625 9.04249 7.625 8.37498C7.625 7.47988 7.98058 6.62143 8.61352 5.9885C9.24645 5.35556 10.1049 4.99998 11 4.99998ZM5.00525 17.6975C5.01826 16.7127 5.41846 15.7727 6.11927 15.0807C6.82008 14.3887 7.76514 14.0005 8.75 14H13.25C14.2349 14.0005 15.1799 14.3887 15.8807 15.0807C16.5815 15.7727 16.9817 16.7127 16.9948 17.6975C15.3499 19.1797 13.2142 20 11 20C8.78581 20 6.65012 19.1797 5.00525 17.6975Z" fill="black"/>
</svg>
