<svg width="22" height="20" viewBox="0 0 22 20" fill="none" xmlns="http://www.w3.org/2000/svg">
<path d="M11 18.0001H13V5.00011L19.394 7.74011C19.574 7.81727 19.7274 7.94559 19.8351 8.10913C19.9428 8.27268 20.0002 8.46426 20 8.66011V18.0001H22V20.0001H0V18.0001H2V4.65011C1.99998 4.45662 2.05608 4.26729 2.16151 4.10506C2.26695 3.94282 2.41718 3.81466 2.594 3.73611L10.297 0.312107C10.3732 0.278251 10.4567 0.263992 10.5398 0.270629C10.6229 0.277266 10.7031 0.304588 10.7729 0.350107C10.8428 0.395627 10.9002 0.457898 10.9398 0.531254C10.9795 0.604609 11.0002 0.686718 11 0.770107V18.0001Z" fill="black"/>
</svg>
