<svg width="14" height="14" viewBox="0 0 14 14" fill="none" xmlns="http://www.w3.org/2000/svg">
<path d="M11.76 7.62628C11.7867 7.42628 11.8 7.21961 11.8 6.99961C11.8 6.78628 11.7867 6.57294 11.7533 6.37294L13.1067 5.31961C13.2267 5.22628 13.26 5.04628 13.1867 4.91294L11.9067 2.69961C11.8267 2.55294 11.66 2.50628 11.5133 2.55294L9.92 3.19294C9.58667 2.93961 9.23333 2.72628 8.84 2.56628L8.6 0.872943C8.57333 0.712943 8.44 0.599609 8.28 0.599609H5.72C5.56 0.599609 5.43333 0.712943 5.40667 0.872943L5.16667 2.56628C4.77333 2.72628 4.41333 2.94628 4.08667 3.19294L2.49333 2.55294C2.34667 2.49961 2.18 2.55294 2.1 2.69961L0.826666 4.91294C0.746666 5.05294 0.773333 5.22628 0.906666 5.31961L2.26 6.37294C2.22667 6.57294 2.2 6.79294 2.2 6.99961C2.2 7.20628 2.21333 7.42628 2.24667 7.62628L0.893333 8.67961C0.773333 8.77294 0.739999 8.95294 0.813333 9.08628L2.09333 11.2996C2.17333 11.4463 2.34 11.4929 2.48667 11.4463L4.08 10.8063C4.41333 11.0596 4.76667 11.2729 5.16 11.4329L5.4 13.1263C5.43333 13.2863 5.56 13.3996 5.72 13.3996H8.28C8.44 13.3996 8.57333 13.2863 8.59333 13.1263L8.83333 11.4329C9.22667 11.2729 9.58667 11.0596 9.91333 10.8063L11.5067 11.4463C11.6533 11.4996 11.82 11.4463 11.9 11.2996L13.18 9.08628C13.26 8.93961 13.2267 8.77294 13.1 8.67961L11.76 7.62628ZM7 9.39961C5.68 9.39961 4.6 8.31961 4.6 6.99961C4.6 5.67961 5.68 4.59961 7 4.59961C8.32 4.59961 9.4 5.67961 9.4 6.99961C9.4 8.31961 8.32 9.39961 7 9.39961Z" fill="black"/>
</svg>
