<svg xmlns="http://www.w3.org/2000/svg" xmlns:xlink="http://www.w3.org/1999/xlink" width="500" zoomAndPan="magnify" viewBox="0 0 375 374.999991" height="500" preserveAspectRatio="xMidYMid meet" version="1.0"><defs><clipPath id="c404dc5b2d"><path d="M 27.421875 202 L 71 202 L 71 226 L 27.421875 226 Z M 27.421875 202 " clip-rule="nonzero"/></clipPath></defs><path fill="#2e3192" d="M 65.742188 97.597656 C 65.742188 97.597656 63.296875 99.917969 66.058594 103.007812 C 68.824219 106.101562 68.675781 105.652344 68.496094 106.878906 C 68.3125 108.097656 69.277344 109.777344 67.605469 109.386719 C 65.933594 109.003906 63.554688 107.519531 63.683594 105.84375 C 63.8125 104.167969 62.847656 102.558594 61.878906 101.785156 C 60.914062 101.011719 57.765625 98.757812 58.605469 96.535156 C 59.433594 94.3125 59.757812 92.632812 57.699219 91.472656 C 55.640625 90.3125 55.726562 85.257812 59.390625 81.003906 C 63.058594 76.753906 67.273438 79.683594 68.496094 76.652344 C 69.714844 73.625 73.617188 70.128906 77.667969 71.675781 C 84.664062 74.34375 83.519531 76.667969 83.503906 78.132812 C 83.492188 79.601562 83.933594 81.210938 84.949219 81.339844 C 85.972656 81.46875 89.75 84.972656 87.695312 87.804688 C 85.640625 90.640625 86.769531 91.425781 87.023438 92.457031 C 87.28125 93.488281 89.28125 93.519531 86.449219 96.050781 C 77.859375 103.71875 84.074219 80.195312 65.742188 97.597656 " fill-opacity="1" fill-rule="nonzero"/><path fill="#f7981a" d="M 86.046875 111.902344 C 86.046875 111.902344 103.351562 109.765625 111.523438 114.253906 C 111.523438 114.253906 110.847656 107.96875 97.167969 95.460938 C 97.167969 95.460938 96.800781 89.21875 103.226562 91.148438 C 109.660156 93.085938 134.554688 111.808594 125.894531 123.824219 C 121.847656 129.445312 91.003906 131.785156 89.40625 127.171875 L 86.046875 111.902344 " fill-opacity="1" fill-rule="nonzero"/><path fill="#e66f64" d="M 97.816406 96.261719 C 97.816406 96.261719 96.011719 94.925781 93.519531 92.191406 C 91.027344 89.453125 90.976562 89.179688 89.585938 87.222656 C 88.625 85.863281 90.230469 86.320312 90.335938 86.300781 C 90.398438 86.289062 90.132812 86.1875 90.503906 85.875 C 90.730469 85.675781 91.484375 85.457031 91.894531 85.464844 C 92.160156 85.472656 93.066406 85.511719 93.46875 85.519531 C 95.363281 85.574219 98.921875 85.636719 103.519531 91.089844 C 103.519531 91.089844 102.164062 96.894531 97.816406 96.261719 " fill-opacity="1" fill-rule="nonzero"/><path fill="#fab43d" d="M 89.199219 86.117188 C 89.199219 86.117188 84.320312 71.753906 86.480469 62.746094 C 86.480469 62.746094 99.742188 58.316406 102.707031 73.28125 C 102.707031 73.28125 105.003906 85.152344 93.769531 88.082031 C 93.769531 88.082031 94.101562 94.21875 93.253906 94.761719 C 92.402344 95.304688 90.382812 90.9375 89.199219 86.117188 " fill-opacity="1" fill-rule="nonzero"/><path fill="#f7981a" d="M 93.140625 86.921875 C 93.140625 86.921875 92.140625 85.328125 91.195312 84.324219 C 91.195312 84.324219 103.359375 75.429688 100.632812 67.535156 C 100.632812 67.535156 101.523438 67.921875 102.125 68.621094 C 102.722656 69.324219 104.488281 74.757812 103.304688 77.734375 C 102.117188 80.707031 98.503906 84.390625 93.140625 86.921875 " fill-opacity="1" fill-rule="nonzero"/><path fill="#e66f64" d="M 98.324219 96.535156 C 98.324219 96.535156 93.886719 96.28125 91.59375 92.675781 C 89.304688 89.066406 92.578125 90.6875 100.800781 95.167969 L 98.324219 96.535156 " fill-opacity="1" fill-rule="nonzero"/><path fill="#26285d" d="M 96.140625 162 C 96.140625 162 102.175781 214.691406 103.210938 239.691406 C 103.210938 239.691406 86.414062 240.375 83.796875 235.035156 C 81.171875 229.699219 73.984375 168.785156 73.984375 168.785156 L 96.140625 162 " fill-opacity="1" fill-rule="nonzero"/><path fill="#26285d" d="M 65.625 290.65625 C 65.625 290.65625 64.425781 290.746094 64.28125 291.074219 C 64.140625 291.402344 61.839844 295.617188 61.78125 296.492188 C 61.722656 297.375 73.308594 304.050781 73.308594 304.050781 C 73.308594 304.050781 81.605469 306.796875 82.679688 306.203125 C 83.753906 305.605469 83.042969 302.847656 82.679688 302.574219 C 82.316406 302.296875 71.441406 290.65625 71.441406 290.65625 L 65.625 290.65625 " fill-opacity="1" fill-rule="nonzero"/><path fill="#26285d" d="M 58.351562 306.273438 C 58.351562 306.273438 52.53125 306.054688 52.511719 306.414062 C 52.488281 306.769531 51.855469 311.53125 52.113281 312.375 C 52.371094 313.210938 67.132812 315.828125 67.132812 315.828125 C 67.132812 315.828125 79.042969 315.601562 79.835938 314.664062 C 80.621094 313.722656 80.304688 313.003906 79.863281 312.875 C 79.429688 312.746094 63.082031 302.957031 63.082031 302.957031 L 58.351562 306.273438 " fill-opacity="1" fill-rule="nonzero"/><path fill="#f68c82" d="M 58.734375 299.503906 C 58.734375 299.503906 58.421875 306.84375 58.457031 306.980469 C 58.785156 308.097656 61.929688 308.230469 62.882812 307.398438 L 64.847656 300.363281 L 58.734375 299.503906 " fill-opacity="1" fill-rule="nonzero"/><path fill="#f68c82" d="M 67.609375 284.894531 C 67.609375 284.894531 64.757812 291.613281 64.742188 291.804688 C 64.628906 292.960938 67.355469 294.300781 68.535156 293.851562 L 72.554688 287.558594 L 67.609375 284.894531 " fill-opacity="1" fill-rule="nonzero"/><path fill="#26285d" d="M 94.203125 225.148438 C 94.203125 225.148438 88.15625 226.054688 86.867188 227.613281 C 85.578125 229.171875 67.101562 278.054688 62.441406 290.65625 C 62.441406 290.65625 67.886719 296.183594 70.660156 294.582031 C 74.914062 292.117188 102.917969 239.960938 102.917969 239.960938 L 94.203125 225.148438 " fill-opacity="1" fill-rule="nonzero"/><path fill="#2e3192" d="M 76.195312 167.917969 C 76.332031 170.609375 95.832031 167.0625 95.957031 169.8125 C 96.433594 180.121094 79.488281 208.589844 79.507812 208.960938 C 72.320312 253.210938 68.066406 298.902344 65.527344 308.203125 C 64.472656 312.070312 52.589844 307.933594 52.589844 307.933594 C 52.101562 257.480469 53.949219 176.0625 53.949219 176.0625 C 59.007812 172.839844 69.421875 167.726562 76.195312 167.917969 " fill-opacity="1" fill-rule="nonzero"/><path fill="#f68c82" d="M 49.289062 184.824219 C 49.289062 184.824219 52.851562 187.847656 52.578125 192.554688 C 52.304688 197.261719 50.792969 193.765625 47.21875 184.59375 L 49.289062 184.824219 " fill-opacity="1" fill-rule="nonzero"/><path fill="#fab43d" d="M 53.472656 203.867188 C 53.472656 203.867188 54.75 192.453125 47.308594 192.425781 C 40.5625 192.402344 41.414062 203.867188 41.414062 203.867188 L 38.507812 203.867188 C 38.507812 203.867188 37.808594 189.886719 47.230469 189.765625 C 58.921875 189.621094 56.746094 203.867188 56.746094 203.867188 L 53.472656 203.867188 " fill-opacity="1" fill-rule="nonzero"/><g clip-path="url(#c404dc5b2d)"><path fill="#fab43d" d="M 28.484375 225.148438 C 28.066406 223.332031 27.828125 221.386719 27.828125 219.351562 C 27.828125 209.78125 32.863281 202.023438 39.082031 202.023438 L 59.40625 202.023438 C 65.621094 202.023438 70.660156 209.78125 70.660156 219.351562 C 70.660156 221.386719 70.417969 223.332031 69.996094 225.148438 L 28.484375 225.148438 " fill-opacity="1" fill-rule="nonzero"/></g><path fill="#f7981a" d="M 49.300781 225.148438 C 48.847656 223.347656 48.589844 221.398438 48.589844 219.351562 C 48.589844 210.480469 53.257812 203.289062 59.019531 203.289062 C 64.773438 203.289062 69.441406 210.480469 69.441406 219.351562 C 69.441406 221.398438 69.183594 223.347656 68.734375 225.148438 L 49.300781 225.148438 " fill-opacity="1" fill-rule="nonzero"/><path fill="#fab43d" d="M 54.582031 113.539062 C 54.582031 113.539062 42.480469 117.988281 32.300781 155.554688 C 32.300781 155.554688 32.546875 173.207031 35.789062 167.957031 C 39.03125 162.707031 50.699219 149.808594 60.761719 129.847656 C 60.761719 129.847656 58.527344 111.070312 54.582031 113.539062 " fill-opacity="1" fill-rule="nonzero"/><path fill="#fab43d" d="M 51.15625 120 L 55.128906 113.3125 C 55.128906 113.3125 71.238281 109.359375 74.144531 109.128906 C 74.144531 109.128906 85.808594 111.769531 86.046875 111.902344 L 87.363281 112.523438 L 93.394531 117.34375 C 93.394531 117.34375 95.515625 165.5 95.292969 169.96875 C 89.902344 170.417969 78.488281 173.710938 73.027344 173.820312 C 70.21875 173.878906 64.515625 173.324219 59.121094 171.597656 C 57.382812 165.359375 49.386719 130.558594 51.15625 120 " fill-opacity="1" fill-rule="nonzero"/><path fill="#f7981a" d="M 89.015625 150.679688 C 88.414062 148.449219 87.898438 146.179688 87.445312 143.902344 C 87.324219 139.300781 86.894531 134.765625 86.335938 130.234375 C 86.148438 127.992188 86.113281 125.902344 86.335938 123.628906 C 86.699219 119.929688 86.421875 116.324219 85.621094 112.871094 C 85.957031 112.34375 86.277344 111.835938 86.394531 111.902344 L 87.714844 112.523438 L 93.734375 117.34375 C 93.734375 117.34375 94.753906 140.4375 95.304688 156.125 C 93.378906 154.125 91.277344 152.296875 89.015625 150.679688 " fill-opacity="1" fill-rule="nonzero"/><path fill="#e66f64" d="M 68.25 104.484375 C 68.402344 104.125 80.035156 106.03125 80.035156 106.03125 C 80.035156 106.03125 79.039062 110.296875 80.613281 114.15625 L 74.644531 115.929688 C 72.707031 115.945312 67.59375 114.019531 66.382812 113.046875 C 66.382812 113.046875 66.144531 109.566406 68.25 104.484375 " fill-opacity="1" fill-rule="nonzero"/><path fill="#f68c82" d="M 81.335938 106.714844 C 81.335938 106.714844 77.773438 114.160156 69.640625 108.710938 C 63.460938 104.574219 66.007812 88.910156 69.371094 85.0625 C 72.734375 81.214844 77.261719 77.570312 81.890625 84 C 85.910156 89.582031 84.796875 101.410156 81.335938 106.714844 " fill-opacity="1" fill-rule="nonzero"/><path fill="#f68c82" d="M 68.003906 97.765625 C 68.871094 99.652344 68.558594 101.648438 67.3125 102.222656 C 66.066406 102.796875 64.351562 101.738281 63.488281 99.847656 C 62.621094 97.964844 62.929688 95.96875 64.175781 95.394531 C 65.421875 94.820312 67.136719 95.882812 68.003906 97.765625 " fill-opacity="1" fill-rule="nonzero"/><path fill="#fab43d" d="M 44.65625 156.082031 C 44.65625 156.082031 43.304688 166.949219 49.660156 185.953125 C 49.660156 185.953125 50.152344 192.105469 44.914062 188.78125 C 39.675781 185.449219 30.804688 164.050781 31.585938 157.863281 C 32.367188 151.679688 42.550781 140.828125 44.65625 156.082031 " fill-opacity="1" fill-rule="nonzero"/><path fill="#f68c82" d="M 49.675781 185.171875 C 49.675781 185.171875 50.664062 187.773438 51.023438 191.808594 C 51.382812 195.847656 51.265625 196.128906 51.21875 198.773438 C 51.183594 200.609375 50.203125 199.203125 50.117188 199.152344 C 50.054688 199.125 50.203125 199.382812 49.738281 199.441406 C 49.445312 199.480469 48.742188 199.21875 48.425781 198.953125 C 48.234375 198.785156 47.542969 198.195312 47.246094 197.933594 C 45.808594 196.714844 43.085938 194.460938 42.652344 186.648438 C 42.652344 186.648438 46.675781 181.914062 49.675781 185.171875 " fill-opacity="1" fill-rule="nonzero"/><path fill="#2e3192" d="M 86.230469 111.691406 L 82.640625 111.074219 L 86.046875 134.746094 L 67.636719 134.605469 L 63.449219 111.332031 L 59.421875 112.28125 L 61.667969 134.761719 L 62.121094 141.480469 L 53.949219 148.359375 L 53.949219 176.0625 C 53.949219 176.0625 81.214844 188.128906 96.742188 170.53125 L 95.304688 145.269531 L 91.566406 141.851562 L 90.304688 133.78125 L 86.230469 111.691406 " fill-opacity="1" fill-rule="nonzero"/><path fill="#2e3192" d="M 86.046875 94.242188 C 86.046875 94.242188 84.839844 94.890625 84.519531 93.019531 C 84.195312 91.148438 83.898438 88.636719 81.890625 88.382812 C 79.890625 88.121094 77.773438 87.800781 75.9375 85.996094 C 74.097656 84.191406 69.597656 86.554688 69.085938 90.175781 C 68.566406 93.792969 68.503906 95.980469 64.066406 95.855469 C 59.632812 95.726562 63.941406 95.726562 64.066406 95.402344 C 64.195312 95.082031 69.664062 78.84375 69.664062 78.84375 L 77.316406 78.132812 C 77.316406 78.132812 84.777344 85.15625 84.898438 85.414062 C 85.035156 85.671875 86.046875 94.242188 86.046875 94.242188 " fill-opacity="1" fill-rule="nonzero"/><path fill="#26285d" d="M 65.882812 154.738281 L 89.28125 154.738281 L 87.136719 137.726562 L 65.882812 137.726562 L 65.882812 154.738281 " fill-opacity="1" fill-rule="nonzero"/><path fill="#26285d" d="M 228.410156 297.480469 C 228.410156 297.480469 231.457031 300.539062 233.265625 306.449219 C 238 321.917969 224.269531 314.90625 219.691406 309.035156 C 217.828125 306.640625 216.265625 291.882812 220.226562 290.804688 C 221.773438 290.386719 228.410156 297.480469 228.410156 297.480469 " fill-opacity="1" fill-rule="nonzero"/><path fill="#e66f64" d="M 164.761719 162.433594 C 164.761719 162.433594 170.214844 162.976562 173.675781 160.140625 C 173.675781 160.140625 174.117188 160.058594 174.308594 160.722656 C 174.496094 161.390625 173.273438 164.257812 171.964844 165.078125 C 170.65625 165.902344 167.886719 165.3125 167.886719 165.3125 L 164.761719 162.433594 " fill-opacity="1" fill-rule="nonzero"/><path fill="#e66f64" d="M 162.6875 141.699219 C 162.6875 141.699219 157.605469 151.671875 167.035156 163.0625 C 167.035156 163.0625 171.875 170.90625 165.453125 170.300781 C 159.03125 169.695312 150.59375 159.375 149.453125 148.183594 C 148.804688 141.832031 153.164062 123.351562 162.6875 141.699219 " fill-opacity="1" fill-rule="nonzero"/><path fill="#26285d" d="M 179.523438 101.511719 C 179.523438 101.511719 170.082031 103.457031 150.105469 137.964844 C 150.105469 137.964844 148.863281 140.890625 159.15625 142.484375 C 165.425781 143.445312 164.207031 140.140625 179.523438 123.042969 C 179.523438 123.042969 184.144531 100.113281 179.523438 101.511719 " fill-opacity="1" fill-rule="nonzero"/><path fill="#26285d" d="M 164.761719 139.988281 C 164.761719 139.988281 164.882812 143.808594 162.707031 144.761719 C 160.53125 145.714844 147.867188 144.222656 147.34375 142.984375 C 146.8125 141.75 146.992188 132.324219 151.386719 131.886719 C 155.78125 131.441406 164.761719 139.988281 164.761719 139.988281 " fill-opacity="1" fill-rule="nonzero"/><path fill="#e66f64" d="M 174.875 167.640625 C 176.132812 170.03125 174.902344 172.5 173.050781 174.292969 C 170.871094 174.375 166.949219 176.125 161.949219 168.835938 C 161.949219 168.835938 161.589844 163.992188 167.507812 162.964844 C 167.507812 162.964844 166.351562 161.414062 170.226562 163.671875 C 171.335938 164.320312 172.769531 164.859375 174.242188 165.34375 C 174.292969 166.125 174.488281 166.910156 174.875 167.640625 " fill-opacity="1" fill-rule="nonzero"/><path fill="#bdbcbc" d="M 138.617188 150.855469 L 177.75 144.363281 L 182.425781 168.96875 L 145.1875 177.117188 L 138.617188 150.855469 " fill-opacity="1" fill-rule="nonzero"/><path fill="#bdbcbc" d="M 139.558594 145.671875 L 178.6875 139.1875 L 183.367188 163.785156 L 146.125 171.9375 L 139.558594 145.671875 " fill-opacity="1" fill-rule="nonzero"/><path fill="#26285d" d="M 194.386719 293.847656 C 194.386719 293.847656 195.828125 294.566406 195.84375 295.046875 C 195.859375 295.527344 196.597656 301.921875 196.226562 303.042969 C 195.859375 304.160156 176.304688 306.320312 176.304688 306.320312 C 176.304688 306.320312 166.414062 305.84375 165.382812 304.5625 C 164.347656 303.28125 164.789062 302.320312 165.382812 302.164062 C 165.972656 302 188.773438 293.289062 188.773438 293.289062 L 194.386719 293.847656 " fill-opacity="1" fill-rule="nonzero"/><path fill="#26285d" d="M 190.421875 237.53125 C 190.421875 237.53125 195.8125 246.71875 196.332031 248.578125 C 196.847656 250.429688 195.90625 281.742188 195.90625 294.800781 C 195.90625 294.800781 182.539062 297.023438 184.492188 294.921875 C 186.011719 293.289062 176.707031 243.875 176.707031 243.875 L 190.421875 237.53125 " fill-opacity="1" fill-rule="nonzero"/><path fill="#26285d" d="M 174.429688 163.902344 C 174.429688 163.902344 174.226562 219.757812 176.707031 243.875 C 176.707031 243.875 192.105469 249.855469 193.417969 244.308594 C 194.726562 238.761719 197.601562 169.277344 197.601562 169.277344 L 174.429688 163.902344 " fill-opacity="1" fill-rule="nonzero"/><path fill="#2e3192" d="M 194.5625 166.046875 C 194.386719 168.660156 174.5625 164.96875 175.324219 167.539062 C 186.011719 203.695312 195.769531 233.316406 198.515625 237.53125 C 211.96875 276.75 215.339844 289.335938 217.101562 298.96875 C 217.414062 300.695312 227.390625 304.507812 230.085938 299.804688 C 230.085938 299.804688 225.191406 254.976562 218.527344 241.757812 C 215.238281 235.230469 212.988281 170.101562 212.988281 170.101562 C 208.128906 166.878906 201.152344 165.980469 194.5625 166.046875 " fill-opacity="1" fill-rule="nonzero"/><path fill="#2e3192" d="M 197.179688 101.367188 C 197.179688 101.367188 214.78125 105.273438 222.261719 115.484375 C 222.261719 115.484375 216.347656 145.066406 212.988281 170.101562 C 212.988281 170.101562 188.914062 181.167969 174.585938 167.359375 C 174.585938 167.359375 162.78125 123.910156 175.304688 103.953125 C 175.304688 103.953125 182.054688 97.316406 197.179688 101.367188 " fill-opacity="1" fill-rule="nonzero"/><path fill="#fab43d" d="M 189.742188 100.117188 C 179.828125 99.519531 175.304688 103.953125 175.304688 103.953125 C 162.78125 123.910156 167.332031 170.335938 167.332031 170.335938 C 168.25 171.214844 175.765625 176.429688 176.753906 177.117188 C 174.753906 133.667969 182.160156 107.675781 189.742188 100.117188 " fill-opacity="1" fill-rule="nonzero"/><path fill="#fab43d" d="M 221.121094 122.527344 C 214.734375 121.851562 213.261719 114.035156 216.703125 110.066406 C 211.730469 106.757812 206.113281 104.15625 202.621094 102.964844 C 194.957031 105.675781 183.523438 123.484375 189.742188 179.144531 C 201.566406 180.429688 218.273438 174.300781 218.273438 174.300781 C 218.160156 158.675781 217.265625 139.296875 222.621094 123.617188 C 222.089844 123.292969 221.597656 122.917969 221.121094 122.527344 " fill-opacity="1" fill-rule="nonzero"/><path fill="#fab43d" d="M 179.503906 125.972656 C 182.050781 112.644531 185.875 103.976562 189.742188 100.117188 C 179.828125 99.519531 175.304688 103.953125 175.304688 103.953125 C 172.324219 108.699219 170.320312 114.957031 168.980469 121.722656 C 172.148438 123.765625 175.894531 125.007812 179.503906 125.972656 " fill-opacity="1" fill-rule="nonzero"/><path fill="#ffffff" d="M 166.550781 148.230469 C 166.515625 151.316406 166.535156 154.257812 166.59375 156.898438 C 169.367188 158.769531 172.769531 160.15625 176.433594 161.15625 C 176.457031 157.808594 176.546875 154.605469 176.6875 151.523438 C 173.191406 150.726562 169.800781 149.65625 166.550781 148.230469 " fill-opacity="1" fill-rule="nonzero"/><path fill="#ffffff" d="M 177.011719 145.828125 C 177.363281 140.867188 177.859375 136.28125 178.472656 132.078125 C 174.757812 131.003906 171.179688 129.601562 167.976562 127.753906 C 167.320312 132.519531 166.9375 137.375 166.730469 142.035156 C 169.984375 143.710938 173.4375 144.9375 177.011719 145.828125 " fill-opacity="1" fill-rule="nonzero"/><path fill="#fab43d" d="M 202.117188 129.683594 C 208.257812 129.417969 215.039062 128.976562 221.449219 127.492188 C 221.804688 126.179688 222.1875 124.882812 222.621094 123.617188 C 222.089844 123.292969 221.597656 122.917969 221.121094 122.527344 C 214.734375 121.851562 213.261719 114.035156 216.703125 110.066406 C 211.730469 106.757812 206.113281 104.15625 202.621094 102.964844 C 198.082031 104.566406 192.226562 111.484375 189.496094 128.414062 C 193.664062 129.285156 197.882812 129.871094 202.117188 129.683594 " fill-opacity="1" fill-rule="nonzero"/><path fill="#ffffff" d="M 197.570312 147.886719 C 204.664062 147.816406 211.632812 147.007812 218.605469 145.800781 C 218.886719 141.75 219.328125 137.726562 220.035156 133.816406 C 213.074219 135.308594 205.863281 135.746094 199.519531 135.359375 C 196.191406 135.160156 192.507812 134.828125 188.730469 134.265625 C 188.3125 138.230469 188.058594 142.648438 187.984375 147.558594 C 191.179688 147.820312 194.394531 147.914062 197.570312 147.886719 " fill-opacity="1" fill-rule="nonzero"/><path fill="#ffffff" d="M 215.492188 152.070312 C 207.503906 153.238281 199.496094 153.898438 191.414062 153.464844 C 190.273438 153.40625 189.136719 153.316406 188 153.222656 C 188.050781 156.371094 188.164062 159.671875 188.371094 163.191406 C 192.191406 163.523438 195.8125 163.59375 198.769531 163.5 C 204.285156 163.328125 211.527344 163.09375 218.15625 161.730469 C 218.144531 158.429688 218.175781 155.0625 218.292969 151.679688 C 217.351562 151.808594 216.410156 151.933594 215.492188 152.070312 " fill-opacity="1" fill-rule="nonzero"/><path fill="#26285d" d="M 191.246094 97.371094 L 180.800781 103.457031 L 188.917969 106.660156 C 188.714844 109.453125 188.3125 115.789062 188.3125 115.789062 L 190.753906 107.382812 L 190.917969 107.445312 L 193.714844 103.953125 L 193.742188 97.371094 L 191.246094 97.371094 " fill-opacity="1" fill-rule="nonzero"/><path fill="#e66f64" d="M 206.050781 87.195312 C 206.050781 87.195312 203.269531 97.996094 202.886719 104.195312 C 202.886719 104.195312 195.140625 111.503906 190.917969 107.445312 C 190.917969 107.445312 192.136719 88.292969 188.695312 85.800781 C 185.246094 83.316406 206.050781 87.195312 206.050781 87.195312 " fill-opacity="1" fill-rule="nonzero"/><path fill="#e66f64" d="M 191.835938 106.300781 L 190.917969 107.445312 L 188.3125 116.144531 L 194.429688 109.535156 L 199.277344 106.890625 L 191.835938 106.300781 " fill-opacity="1" fill-rule="nonzero"/><path fill="#f68c82" d="M 202.582031 68.757812 C 202.582031 68.757812 191.207031 63.535156 183.761719 70.796875 C 183.761719 70.796875 180.117188 80.128906 180.910156 87.144531 C 181.703125 94.152344 185.921875 102.050781 191.097656 102.410156 C 191.097656 102.410156 203.15625 100.6875 205.15625 90.65625 C 206.957031 81.632812 206.015625 71.070312 202.582031 68.757812 " fill-opacity="1" fill-rule="nonzero"/><path fill="#2e3192" d="M 184.148438 80.558594 C 184.148438 80.558594 183.941406 87.082031 195.710938 88.488281 C 195.710938 88.488281 197.183594 90.308594 191.957031 89.667969 C 186.730469 89.019531 177.558594 84.503906 179.332031 80.125 C 181.105469 75.746094 184.148438 80.558594 184.148438 80.558594 " fill-opacity="1" fill-rule="nonzero"/><path fill="#2e3192" d="M 204.054688 79.585938 C 204.054688 82.28125 201.351562 86.507812 195.738281 86.894531 C 187.902344 87.433594 182.253906 82.476562 182.253906 79.785156 C 182.253906 77.09375 194.089844 77.359375 198.011719 77.359375 C 201.925781 77.359375 204.054688 76.898438 204.054688 79.585938 " fill-opacity="1" fill-rule="nonzero"/><path fill="#f68c82" d="M 203.007812 86.71875 C 202.167969 89.691406 202.851562 92.488281 204.53125 92.964844 C 206.214844 93.441406 208.257812 91.417969 209.097656 88.445312 C 209.9375 85.472656 209.25 82.675781 207.570312 82.199219 C 205.882812 81.722656 203.84375 83.746094 203.007812 86.71875 " fill-opacity="1" fill-rule="nonzero"/><path fill="#2e3192" d="M 206.105469 78.449219 C 201.703125 74.074219 196.265625 70.632812 189.84375 70.410156 C 188.917969 70.378906 187.023438 70.226562 185.132812 70.324219 C 184.222656 71.429688 183.332031 72.652344 182.253906 73.980469 C 183.09375 73.867188 183.945312 73.652344 184.792969 73.316406 C 184.792969 73.316406 188.40625 74.25 189.871094 71.992188 C 189.871094 71.992188 192.191406 75.300781 197.363281 73.695312 C 197.363281 73.695312 196.84375 79.804688 201.648438 80.683594 C 201.648438 80.683594 202.242188 83.613281 201.15625 85.546875 C 200.070312 87.488281 201 89.226562 201.699219 89.765625 C 202.398438 90.3125 202.398438 88.421875 202.398438 88.421875 C 202.398438 88.421875 203.664062 84.589844 205.339844 84.28125 C 207.019531 83.96875 207.25 84.902344 207.816406 85.1875 C 208.386719 85.472656 209.523438 85.988281 210.195312 84.175781 C 210.648438 82.953125 210.339844 81.5625 210.195312 80.554688 C 208.796875 80.371094 207.386719 79.71875 206.105469 78.449219 " fill-opacity="1" fill-rule="nonzero"/><path fill="#ededed" d="M 183.167969 84.820312 C 183.167969 84.820312 200.511719 86.605469 210.433594 81.195312 C 210.433594 81.195312 212.566406 63.558594 194.003906 64.78125 C 194.003906 64.78125 179.296875 65.828125 179.402344 80.042969 C 179.402344 80.042969 172.078125 81.589844 171.703125 82.765625 C 171.335938 83.941406 177.117188 84.949219 183.167969 84.820312 " fill-opacity="1" fill-rule="nonzero"/><path fill="#bdbcbc" d="M 180.96875 80.421875 C 180.96875 80.421875 183.515625 82.289062 191.199219 82.996094 C 191.199219 82.996094 192.546875 65.140625 202.699219 65.859375 C 202.699219 65.859375 201.289062 64.414062 199.339844 64.179688 C 198.226562 64.042969 191.699219 63.148438 188.570312 65.488281 C 185.445312 67.832031 182.253906 73.273438 180.96875 80.421875 " fill-opacity="1" fill-rule="nonzero"/><path fill="#26285d" d="M 194.953125 107.105469 L 193.792969 106.460938 L 188.035156 116.144531 L 196.34375 109.480469 L 194.953125 107.105469 " fill-opacity="1" fill-rule="nonzero"/><path fill="#26285d" d="M 194.171875 108.609375 L 193.792969 106.460938 L 204.449219 97.730469 L 207.4375 104.691406 L 195.445312 116.480469 L 194.171875 108.609375 " fill-opacity="1" fill-rule="nonzero"/><path fill="#2e3192" d="M 216.230469 110.566406 C 216.230469 110.566406 222.5625 114.53125 224.320312 117.9375 C 226.082031 121.34375 226.433594 127.941406 218.339844 129.871094 C 210.253906 131.800781 182.777344 135.910156 179.109375 135.089844 C 175.433594 134.269531 171.109375 126.984375 174.328125 124.632812 C 177.542969 122.285156 202.28125 111.890625 216.230469 110.566406 " fill-opacity="1" fill-rule="nonzero"/><path fill="#2e3192" d="M 165.816406 125.691406 C 165.816406 125.691406 170.367188 120.410156 175.382812 120.992188 C 180.40625 121.570312 187.800781 134.210938 186.011719 137.175781 C 184.222656 140.140625 177.542969 140.792969 174.84375 137.175781 C 172.152344 133.5625 165.816406 125.691406 165.816406 125.691406 " fill-opacity="1" fill-rule="nonzero"/><path fill="#f68c82" d="M 173.203125 123.8125 C 173.203125 123.8125 182.273438 133.921875 179.558594 135.152344 C 176.847656 136.382812 153.273438 139.652344 126.25 138.464844 C 126.25 138.464844 121.195312 134.570312 125.667969 132.972656 C 130.136719 131.382812 163.488281 122.875 173.203125 123.8125 " fill-opacity="1" fill-rule="nonzero"/><path fill="#f68c82" d="M 116.492188 134.234375 C 117.023438 134.027344 131.1875 130.921875 134.792969 132.15625 C 138.402344 133.390625 131.960938 143.652344 122.894531 143.835938 C 117.679688 143.941406 111.703125 136.082031 116.492188 134.234375 " fill-opacity="1" fill-rule="nonzero"/><path fill="#f68c82" d="M 105.222656 136.269531 C 105.222656 136.269531 121.074219 133.285156 124.175781 132.734375 C 127.265625 132.191406 124.175781 134.503906 124.175781 134.503906 L 119.644531 137.226562 C 119.644531 137.226562 103.113281 142.214844 105.222656 136.269531 " fill-opacity="1" fill-rule="nonzero"/><path fill="#ffffff" d="M 185.078125 119.121094 C 185.078125 119.386719 184.882812 119.601562 184.652344 119.601562 C 184.414062 119.601562 184.222656 119.386719 184.222656 119.121094 C 184.222656 118.859375 184.414062 118.640625 184.652344 118.640625 C 184.882812 118.640625 185.078125 118.859375 185.078125 119.121094 " fill-opacity="1" fill-rule="nonzero"/><path fill="#ffffff" d="M 182.425781 139.652344 C 182.425781 139.914062 182.238281 140.128906 182.003906 140.128906 C 181.765625 140.128906 181.578125 139.914062 181.578125 139.652344 C 181.578125 139.386719 181.765625 139.171875 182.003906 139.171875 C 182.238281 139.171875 182.425781 139.386719 182.425781 139.652344 " fill-opacity="1" fill-rule="nonzero"/><path fill="#ffffff" d="M 181.578125 148.835938 C 181.578125 149.097656 181.390625 149.3125 181.152344 149.3125 C 180.921875 149.3125 180.730469 149.097656 180.730469 148.835938 C 180.730469 148.570312 180.921875 148.355469 181.152344 148.355469 C 181.390625 148.355469 181.578125 148.570312 181.578125 148.835938 " fill-opacity="1" fill-rule="nonzero"/><path fill="#ffffff" d="M 181.578125 158.53125 C 181.578125 158.792969 181.390625 159.007812 181.152344 159.007812 C 180.921875 159.007812 180.730469 158.792969 180.730469 158.53125 C 180.730469 158.265625 180.921875 158.050781 181.152344 158.050781 C 181.390625 158.050781 181.578125 158.265625 181.578125 158.53125 " fill-opacity="1" fill-rule="nonzero"/><path fill="#ffffff" d="M 181.15625 168.96875 C 181.15625 169.230469 180.960938 169.445312 180.730469 169.445312 C 180.492188 169.445312 180.308594 169.230469 180.308594 168.96875 C 180.308594 168.703125 180.492188 168.492188 180.730469 168.492188 C 180.960938 168.492188 181.15625 168.703125 181.15625 168.96875 " fill-opacity="1" fill-rule="nonzero"/><path fill="#e66f64" d="M 248.511719 154.726562 C 248.511719 154.726562 254.078125 155.277344 257.613281 152.386719 C 257.613281 152.386719 258.066406 152.304688 258.257812 152.980469 C 258.449219 153.65625 257.199219 156.585938 255.863281 157.425781 C 254.53125 158.269531 251.703125 157.664062 251.703125 157.664062 L 248.511719 154.726562 " fill-opacity="1" fill-rule="nonzero"/><path fill="#e66f64" d="M 246.398438 133.5625 C 246.398438 133.5625 241.214844 143.738281 250.832031 155.371094 C 250.832031 155.371094 255.773438 163.375 249.222656 162.753906 C 242.664062 162.136719 234.050781 151.601562 232.886719 140.183594 C 232.226562 133.699219 236.675781 114.832031 246.398438 133.5625 " fill-opacity="1" fill-rule="nonzero"/><path fill="#f7981a" d="M 263.582031 92.542969 C 263.582031 92.542969 253.945312 94.527344 233.554688 129.75 C 233.554688 129.75 232.285156 132.734375 242.792969 134.359375 C 249.191406 135.34375 247.949219 131.972656 263.582031 114.519531 C 263.582031 114.519531 268.304688 91.117188 263.582031 92.542969 " fill-opacity="1" fill-rule="nonzero"/><path fill="#f7981a" d="M 248.511719 131.816406 C 248.511719 131.816406 248.636719 135.714844 246.417969 136.6875 C 244.195312 137.660156 231.269531 136.132812 230.734375 134.875 C 230.195312 133.617188 230.375 123.992188 234.859375 123.542969 C 239.347656 123.089844 248.511719 131.816406 248.511719 131.816406 " fill-opacity="1" fill-rule="nonzero"/><path fill="#e66f64" d="M 258.839844 160.039062 C 260.117188 162.480469 258.867188 165.003906 256.976562 166.832031 C 254.753906 166.914062 250.746094 168.699219 245.640625 161.257812 C 245.640625 161.257812 245.273438 156.320312 251.316406 155.265625 C 251.316406 155.265625 250.132812 153.683594 254.09375 155.988281 C 255.226562 156.648438 256.6875 157.199219 258.195312 157.695312 C 258.246094 158.5 258.445312 159.296875 258.839844 160.039062 " fill-opacity="1" fill-rule="nonzero"/><path fill="#bdbcbc" d="M 204.28125 121.292969 C 204.28125 121.292969 241.519531 146.648438 301.039062 167.519531 C 301.039062 167.519531 304.15625 175.375 296.613281 177.882812 C 289.0625 180.394531 237.308594 141.878906 198.429688 130.757812 C 198.429688 130.757812 192.398438 123.589844 204.28125 121.292969 " fill-opacity="1" fill-rule="nonzero"/><path fill="#bdbcbc" d="M 198.429688 130.757812 C 198.429688 130.757812 208.78125 124.777344 204.28125 121.292969 C 203.617188 120.78125 197.65625 121.917969 196.847656 125.769531 C 195.742188 131.015625 198.429688 130.757812 198.429688 130.757812 " fill-opacity="1" fill-rule="nonzero"/><path fill="#ededed" d="M 212.0625 130.96875 C 212.0625 130.96875 253.570312 148.4375 316.039062 157.082031 C 316.039062 157.082031 320.648438 164.160156 313.746094 168.117188 C 306.84375 172.074219 248.5 144.59375 208.199219 141.410156 C 208.199219 141.410156 200.867188 135.578125 212.0625 130.96875 " fill-opacity="1" fill-rule="nonzero"/><path fill="#bdbcbc" d="M 208.199219 141.410156 C 208.199219 141.410156 217.160156 133.492188 212.0625 130.96875 C 211.308594 130.597656 205.691406 132.898438 205.660156 136.835938 C 205.613281 142.195312 208.199219 141.410156 208.199219 141.410156 " fill-opacity="1" fill-rule="nonzero"/><path fill="#26285d" d="M 278.75 288.859375 C 278.75 288.859375 280.222656 289.597656 280.238281 290.085938 C 280.257812 290.578125 281.011719 297.105469 280.636719 298.25 C 280.257812 299.390625 260.296875 301.597656 260.296875 301.597656 C 260.296875 301.597656 250.199219 301.105469 249.148438 299.800781 C 248.09375 298.492188 248.546875 297.515625 249.148438 297.351562 C 249.746094 297.1875 273.027344 288.292969 273.027344 288.292969 L 278.75 288.859375 " fill-opacity="1" fill-rule="nonzero"/><path fill="#26285d" d="M 313.296875 288.59375 C 313.296875 288.59375 315.226562 293.640625 315.191406 294.117188 C 315.160156 294.597656 314.71875 302.265625 314.230469 303.335938 C 313.746094 304.40625 300.6875 314.410156 300.6875 314.410156 C 300.6875 314.410156 291.03125 316.453125 289.617188 315.632812 C 283.378906 312.015625 290.789062 305.601562 291.394531 305.503906 C 291.996094 305.410156 303.3125 292.804688 303.3125 292.804688 L 313.296875 288.59375 " fill-opacity="1" fill-rule="nonzero"/><path fill="#26285d" d="M 274.710938 231.375 C 274.710938 231.375 280.210938 240.753906 280.734375 242.648438 C 281.265625 244.546875 280.300781 276.507812 280.300781 289.839844 C 280.300781 289.839844 266.660156 292.109375 268.65625 289.957031 C 270.207031 288.292969 260.710938 237.855469 260.710938 237.855469 L 274.710938 231.375 " fill-opacity="1" fill-rule="nonzero"/><path fill="#26285d" d="M 258.378906 156.226562 C 258.378906 156.226562 258.175781 213.238281 260.710938 237.855469 C 260.710938 237.855469 276.425781 243.960938 277.765625 238.300781 C 279.097656 232.636719 282.03125 161.710938 282.03125 161.710938 L 258.378906 156.226562 " fill-opacity="1" fill-rule="nonzero"/><path fill="#2e3192" d="M 278.933594 158.414062 C 278.753906 161.085938 258.519531 157.316406 259.292969 159.933594 C 270.207031 196.84375 280.164062 227.074219 282.964844 231.375 C 296.699219 271.40625 300.140625 284.261719 301.9375 294.089844 C 302.257812 295.851562 312.4375 299.746094 315.191406 294.941406 C 315.191406 294.941406 310.199219 249.183594 303.390625 235.695312 C 300.039062 229.03125 297.742188 162.554688 297.742188 162.554688 C 292.785156 159.261719 285.652344 158.347656 278.933594 158.414062 " fill-opacity="1" fill-rule="nonzero"/><path fill="#fab43d" d="M 281.605469 92.390625 C 281.605469 92.390625 299.570312 96.382812 307.203125 106.800781 C 307.203125 106.800781 290.65625 137.484375 297.742188 162.554688 C 297.742188 162.554688 273.160156 173.847656 258.542969 159.757812 C 258.542969 159.757812 246.492188 115.40625 259.277344 95.03125 C 259.277344 95.03125 266.167969 88.253906 281.605469 92.390625 " fill-opacity="1" fill-rule="nonzero"/><path fill="#fab43d" d="M 278.09375 88.316406 L 275.546875 88.316406 L 268.65625 93.230469 L 275.210938 98.601562 L 278.066406 95.03125 L 278.09375 88.316406 " fill-opacity="1" fill-rule="nonzero"/><path fill="#e66f64" d="M 290.65625 77.921875 C 290.65625 77.921875 287.820312 88.949219 287.425781 95.277344 C 287.425781 95.277344 282.4375 99.746094 278.128906 95.605469 C 278.128906 95.605469 276.457031 79.042969 272.941406 76.503906 C 269.425781 73.96875 290.65625 77.921875 290.65625 77.921875 " fill-opacity="1" fill-rule="nonzero"/><path fill="#f68c82" d="M 303.390625 164.621094 C 303.390625 164.621094 298.132812 160.648438 297.375 155.320312 C 297.375 155.320312 297.050781 154.886719 296.339844 155.320312 C 295.636719 155.757812 294.390625 159.292969 294.878906 161.085938 C 295.367188 162.882812 298.296875 164.621094 298.296875 164.621094 L 303.390625 164.621094 " fill-opacity="1" fill-rule="nonzero"/><path fill="#f68c82" d="M 315.390625 141.441406 C 315.390625 141.441406 311.582031 150.996094 300.960938 162.726562 C 300.960938 162.726562 297.253906 170.742188 304.148438 170.398438 C 311.039062 170.054688 327.097656 154.5 329.625 148.148438 C 332.144531 141.800781 328.976562 128.363281 315.390625 141.441406 " fill-opacity="1" fill-rule="nonzero"/><path fill="#fab43d" d="M 292.535156 96.125 C 292.535156 96.125 309.234375 99.414062 328.976562 137.265625 C 328.976562 137.265625 327.125 141.265625 316.042969 142.476562 C 309.296875 143.210938 310.429688 130.105469 290.53125 119.726562 C 290.53125 119.726562 287.660156 94.410156 292.535156 96.125 " fill-opacity="1" fill-rule="nonzero"/><path fill="#f68c82" d="M 299.511719 162.335938 C 299.511719 162.335938 300.980469 160.535156 296.210938 163.042969 C 291.433594 165.546875 282.027344 166.308594 282.03125 168.335938 C 282.03125 170.390625 282.679688 170.507812 284.054688 171.234375 C 284.128906 171.273438 285 172.191406 285.289062 172.757812 C 285.460938 173.105469 286.851562 173.972656 287.386719 174.132812 C 287.71875 174.238281 288.65625 174.847656 289.164062 175.003906 C 291.601562 175.738281 295.097656 175.542969 304.148438 170.398438 C 304.148438 170.398438 306.570312 163.886719 299.511719 162.335938 " fill-opacity="1" fill-rule="nonzero"/><path fill="#f68c82" d="M 287.117188 59.105469 C 287.117188 59.105469 275.507812 53.777344 267.910156 61.1875 C 267.910156 61.1875 264.1875 70.714844 264.996094 77.871094 C 265.804688 85.03125 270.109375 93.089844 275.398438 93.457031 C 275.398438 93.457031 287.707031 91.699219 289.75 81.464844 C 291.582031 72.25 290.621094 61.46875 287.117188 59.105469 " fill-opacity="1" fill-rule="nonzero"/><path fill="#2e3192" d="M 268.308594 71.15625 C 268.308594 71.15625 268.089844 77.808594 280.105469 79.25 C 280.105469 79.25 281.609375 81.109375 276.273438 80.449219 C 270.9375 79.792969 261.574219 75.179688 263.382812 70.707031 C 265.195312 66.242188 268.308594 71.15625 268.308594 71.15625 " fill-opacity="1" fill-rule="nonzero"/><path fill="#2e3192" d="M 288.621094 70.164062 C 288.621094 72.914062 285.863281 77.226562 280.132812 77.621094 C 272.128906 78.167969 266.367188 73.109375 266.367188 70.363281 C 266.367188 67.617188 278.449219 67.886719 282.449219 67.886719 C 286.445312 67.886719 288.621094 67.417969 288.621094 70.164062 " fill-opacity="1" fill-rule="nonzero"/><path fill="#f68c82" d="M 287.550781 77.441406 C 286.691406 80.476562 287.390625 83.328125 289.109375 83.816406 C 290.828125 84.300781 292.914062 82.238281 293.769531 79.203125 C 294.625 76.167969 293.925781 73.316406 292.210938 72.832031 C 290.492188 72.34375 288.402344 74.410156 287.550781 77.441406 " fill-opacity="1" fill-rule="nonzero"/><path fill="#2e3192" d="M 290.71875 69 C 286.222656 64.53125 280.671875 61.023438 274.117188 60.796875 C 273.167969 60.765625 271.238281 60.605469 269.3125 60.707031 C 268.375 61.835938 267.46875 63.085938 266.367188 64.4375 C 267.222656 64.324219 268.097656 64.105469 268.957031 63.761719 C 268.957031 63.761719 272.648438 64.710938 274.140625 62.402344 C 274.140625 62.402344 276.515625 65.785156 281.789062 64.144531 C 281.789062 64.144531 281.261719 70.382812 286.164062 71.28125 C 286.164062 71.28125 286.769531 74.265625 285.660156 76.246094 C 284.554688 78.230469 285.5 80 286.21875 80.554688 C 286.929688 81.109375 286.929688 79.183594 286.929688 79.183594 C 286.929688 79.183594 288.21875 75.269531 289.929688 74.953125 C 291.644531 74.636719 291.878906 75.585938 292.460938 75.878906 C 293.042969 76.167969 294.203125 76.695312 294.886719 74.84375 C 295.351562 73.597656 295.039062 72.175781 294.882812 71.152344 C 293.457031 70.964844 292.023438 70.296875 290.71875 69 " fill-opacity="1" fill-rule="nonzero"/><path fill="#fab43d" d="M 267.296875 75.5 C 267.296875 75.5 285.003906 77.324219 295.132812 71.804688 C 295.132812 71.804688 297.308594 53.796875 278.367188 55.046875 C 278.367188 55.046875 263.351562 56.117188 263.460938 70.625 C 263.460938 70.625 255.980469 72.203125 255.601562 73.40625 C 255.222656 74.605469 261.125 75.636719 267.296875 75.5 " fill-opacity="1" fill-rule="nonzero"/><path fill="#f7981a" d="M 265.058594 71.011719 C 265.058594 71.011719 267.65625 72.917969 275.5 73.640625 C 275.5 73.640625 276.871094 55.414062 287.242188 56.152344 C 287.242188 56.152344 285.796875 54.675781 283.8125 54.4375 C 282.671875 54.296875 276.011719 53.382812 272.820312 55.773438 C 269.628906 58.164062 266.367188 63.71875 265.058594 71.011719 " fill-opacity="1" fill-rule="nonzero"/><path fill="#ffffff" d="M 282.042969 96.949219 C 282.050781 97.355469 278.128906 95.605469 278.128906 95.605469 L 274.710938 99.226562 L 276.207031 103.425781 L 278.09375 103.425781 L 281.550781 101.417969 L 282.042969 96.949219 " fill-opacity="1" fill-rule="nonzero"/><path fill="#ffffff" d="M 275.863281 101.78125 C 275.863281 101.78125 263.582031 120.214844 263.582031 153.492188 L 265.015625 159.875 L 270.691406 155.128906 C 270.691406 155.128906 274.972656 115.023438 278.824219 101.78125 L 275.863281 101.78125 " fill-opacity="1" fill-rule="nonzero"/><path fill="#fab43d" d="M 332.449219 133.046875 C 332.152344 132.667969 311.746094 139.402344 310.308594 141.800781 C 308.875 144.199219 311.984375 145.757812 311.984375 145.757812 C 311.984375 145.757812 331.492188 149.835938 332.449219 148.035156 C 333.40625 146.238281 336.757812 138.558594 332.449219 133.046875 " fill-opacity="1" fill-rule="nonzero"/><path fill="#fab43d" d="M 280.300781 94.671875 L 279.917969 92.480469 L 291.765625 89.929688 L 293.015625 96.289062 L 281.605469 102.707031 L 280.300781 94.671875 " fill-opacity="1" fill-rule="nonzero"/></svg>