<svg xmlns="http://www.w3.org/2000/svg" xmlns:xlink="http://www.w3.org/1999/xlink" width="500" zoomAndPan="magnify" viewBox="0 0 375 374.999991" height="500" preserveAspectRatio="xMidYMid meet" version="1.0"><defs><clipPath id="6c00dac909"><path d="M 48.570312 44.734375 L 326 44.734375 L 326 337.234375 L 48.570312 337.234375 Z M 48.570312 44.734375 " clip-rule="nonzero"/></clipPath></defs><g clip-path="url(#6c00dac909)"><path fill="#0080e6" d="M 233.484375 183.285156 L 233.484375 90.917969 L 187.320312 44.734375 L 141.152344 90.917969 L 141.152344 121.707031 L 48.820312 121.707031 L 48.820312 337.234375 L 325.816406 337.234375 L 325.816406 183.285156 Z M 110.375 306.441406 L 79.597656 306.441406 L 79.597656 275.652344 L 110.375 275.652344 Z M 110.375 244.863281 L 79.597656 244.863281 L 79.597656 214.074219 L 110.375 214.074219 Z M 110.375 183.285156 L 79.597656 183.285156 L 79.597656 152.496094 L 110.375 152.496094 Z M 202.707031 306.441406 L 171.929688 306.441406 L 171.929688 275.652344 L 202.707031 275.652344 Z M 202.707031 244.863281 L 171.929688 244.863281 L 171.929688 214.074219 L 202.707031 214.074219 Z M 202.707031 183.285156 L 171.929688 183.285156 L 171.929688 152.496094 L 202.707031 152.496094 Z M 202.707031 121.707031 L 171.929688 121.707031 L 171.929688 90.917969 L 202.707031 90.917969 Z M 295.039062 306.441406 L 264.261719 306.441406 L 264.261719 275.652344 L 295.039062 275.652344 Z M 295.039062 244.863281 L 264.261719 244.863281 L 264.261719 214.074219 L 295.039062 214.074219 Z M 295.039062 244.863281 " fill-opacity="1" fill-rule="nonzero"/></g></svg>