<svg xmlns="http://www.w3.org/2000/svg" xmlns:xlink="http://www.w3.org/1999/xlink" width="500" zoomAndPan="magnify" viewBox="0 0 375 374.999991" height="500" preserveAspectRatio="xMidYMid meet" version="1.0"><defs><clipPath id="0b9beea35f"><path d="M 39 134 L 232 134 L 232 332.660156 L 39 332.660156 Z M 39 134 " clip-rule="nonzero"/></clipPath><clipPath id="e6937f7c25"><path d="M 187 42.410156 L 198 42.410156 L 198 78 L 187 78 Z M 187 42.410156 " clip-rule="nonzero"/></clipPath><clipPath id="f67adc4e9d"><path d="M 302 174 L 337.5 174 L 337.5 188 L 302 188 Z M 302 174 " clip-rule="nonzero"/></clipPath></defs><g clip-path="url(#0b9beea35f)"><path fill="#ffffff" d="M 221.960938 310.132812 L 222.011719 310.132812 Z M 72.582031 145.054688 C 70.847656 145.054688 69.207031 145.835938 67.449219 147.375 C 67.171875 147.636719 63.921875 150.722656 62.195312 152.367188 L 61.105469 153.398438 C 52.050781 161.863281 47.957031 177.121094 50.664062 192.28125 C 51.546875 197.210938 52.960938 202.320312 54.878906 207.46875 C 64.570312 233.507812 82.996094 256.175781 96.75 270.605469 C 110.4375 285.128906 132.078125 304.746094 157.5625 315.828125 C 162.59375 318.015625 167.617188 319.699219 172.5 320.847656 C 187.484375 324.359375 202.9375 321.09375 211.859375 312.511719 L 213.054688 311.375 C 214.765625 309.753906 217.816406 306.875 218.269531 306.433594 C 223.5 301.042969 220.714844 296.398438 209.746094 285.234375 L 206.902344 282.3125 C 199.796875 274.945312 187.914062 262.554688 178.035156 263.777344 C 175.441406 264.082031 172.617188 266.054688 169.625 268.144531 C 166.6875 270.199219 163.355469 272.527344 159.472656 273.753906 C 149.121094 277.023438 138.605469 274.878906 129.890625 267.695312 C 124.769531 263.472656 119.558594 258.53125 114.816406 253.414062 C 110.042969 248.488281 105.390625 243.019531 101.445312 237.683594 C 94.742188 228.585938 93.152344 217.972656 96.980469 207.800781 C 98.414062 203.996094 100.917969 200.792969 103.125 197.964844 C 105.367188 195.089844 107.488281 192.375 107.933594 189.800781 C 109.628906 179.996094 97.945312 167.457031 90.964844 159.96875 L 88.207031 156.984375 C 80.890625 148.96875 76.484375 145.054688 72.582031 145.054688 Z M 184.613281 332.675781 C 179.46875 332.675781 174.519531 332.054688 170.109375 331.023438 C 164.628906 329.738281 159 327.851562 153.394531 325.414062 C 126.285156 313.628906 103.5 293.015625 89.167969 277.796875 C 74.757812 262.683594 55.398438 238.820312 45.085938 211.117188 C 42.953125 205.378906 41.367188 199.664062 40.378906 194.117188 C 37.742188 179.347656 39.921875 158.890625 53.960938 145.777344 L 54.996094 144.785156 C 56.867188 143.011719 60.441406 139.617188 60.582031 139.5 C 74.890625 126.925781 87.550781 140.769531 95.921875 149.929688 L 98.613281 152.84375 C 106.910156 161.753906 120.8125 176.664062 118.234375 191.582031 C 117.339844 196.746094 114.160156 200.808594 111.363281 204.398438 C 109.445312 206.855469 107.632812 209.171875 106.761719 211.488281 C 104.1875 218.324219 105.257812 225.238281 109.855469 231.472656 C 113.527344 236.441406 117.863281 241.546875 122.402344 246.226562 C 126.910156 251.09375 131.773438 255.699219 136.539062 259.628906 C 142.519531 264.554688 149.367188 265.992188 156.324219 263.792969 C 158.679688 263.042969 161.09375 261.359375 163.644531 259.574219 C 167.378906 256.964844 171.609375 254.015625 176.808594 253.398438 C 191.839844 251.621094 205.972656 266.292969 214.425781 275.054688 L 217.199219 277.90625 C 225.894531 286.757812 239.039062 300.132812 225.699219 313.785156 C 225.695312 313.792969 225.691406 313.796875 225.6875 313.800781 C 225.5625 313.925781 222.121094 317.1875 220.238281 318.96875 L 219.085938 320.0625 C 209.429688 329.34375 196.5 332.675781 184.613281 332.675781 " fill-opacity="1" fill-rule="nonzero"/></g><g clip-path="url(#e6937f7c25)"><path fill="#ffffff" d="M 192.457031 77.496094 C 189.570312 77.496094 187.234375 75.15625 187.234375 72.265625 L 187.234375 47.664062 C 187.234375 44.777344 189.570312 42.441406 192.457031 42.441406 C 195.34375 42.441406 197.683594 44.777344 197.683594 47.664062 L 197.683594 72.265625 C 197.683594 75.15625 195.34375 77.496094 192.457031 77.496094 " fill-opacity="1" fill-rule="nonzero"/></g><path fill="#ffffff" d="M 170.707031 81.667969 C 168.292969 81.667969 166.125 79.988281 165.605469 77.53125 L 160.488281 53.464844 C 159.890625 50.640625 161.6875 47.863281 164.507812 47.265625 C 167.332031 46.65625 170.109375 48.46875 170.707031 51.289062 L 175.824219 75.359375 C 176.425781 78.179688 174.621094 80.957031 171.800781 81.554688 C 171.433594 81.632812 171.070312 81.667969 170.707031 81.667969 " fill-opacity="1" fill-rule="nonzero"/><path fill="#ffffff" d="M 150.316406 90.28125 C 148.316406 90.28125 146.402344 89.121094 145.542969 87.175781 L 135.53125 64.699219 C 134.359375 62.066406 135.542969 58.972656 138.183594 57.800781 C 140.824219 56.632812 143.90625 57.816406 145.082031 60.449219 L 155.085938 82.925781 C 156.261719 85.558594 155.074219 88.648438 152.433594 89.824219 C 151.746094 90.128906 151.023438 90.28125 150.316406 90.28125 " fill-opacity="1" fill-rule="nonzero"/><path fill="#ffffff" d="M 132.152344 102.9375 C 130.53125 102.9375 128.941406 102.195312 127.921875 100.789062 L 113.457031 80.878906 C 111.757812 78.539062 112.28125 75.277344 114.613281 73.578125 C 116.953125 71.878906 120.214844 72.402344 121.914062 74.730469 L 136.371094 94.640625 C 138.066406 96.972656 137.550781 100.242188 135.214844 101.941406 C 134.289062 102.613281 133.210938 102.9375 132.152344 102.9375 " fill-opacity="1" fill-rule="nonzero"/><path fill="#ffffff" d="M 117.003906 119.101562 C 115.757812 119.101562 114.507812 118.660156 113.511719 117.757812 L 95.230469 101.292969 C 93.082031 99.363281 92.914062 96.0625 94.839844 93.914062 C 96.773438 91.773438 100.078125 91.601562 102.222656 93.527344 L 120.5 109.992188 C 122.648438 111.925781 122.820312 115.226562 120.890625 117.371094 C 119.859375 118.519531 118.433594 119.101562 117.003906 119.101562 " fill-opacity="1" fill-rule="nonzero"/><path fill="#ffffff" d="M 262.589844 298.308594 C 260.589844 298.308594 258.683594 297.152344 257.816406 295.207031 L 247.808594 272.726562 C 246.636719 270.09375 247.824219 267 250.457031 265.828125 C 253.097656 264.660156 256.179688 265.839844 257.355469 268.476562 L 267.359375 290.953125 C 268.535156 293.589844 267.347656 296.683594 264.714844 297.855469 C 264.019531 298.160156 263.296875 298.308594 262.589844 298.308594 " fill-opacity="1" fill-rule="nonzero"/><path fill="#ffffff" d="M 285.210938 283.074219 C 283.59375 283.074219 282 282.324219 280.980469 280.917969 L 266.519531 261.015625 C 264.824219 258.675781 265.34375 255.40625 267.675781 253.714844 C 270.019531 252.015625 273.28125 252.539062 274.976562 254.871094 L 289.433594 274.773438 C 291.132812 277.109375 290.609375 280.375 288.277344 282.074219 C 287.351562 282.75 286.273438 283.074219 285.210938 283.074219 " fill-opacity="1" fill-rule="nonzero"/><path fill="#ffffff" d="M 304.164062 263.46875 C 302.917969 263.46875 301.667969 263.023438 300.671875 262.125 L 282.390625 245.660156 C 280.25 243.730469 280.070312 240.425781 282.003906 238.28125 C 283.933594 236.144531 287.242188 235.964844 289.382812 237.890625 L 307.660156 254.359375 C 309.808594 256.289062 309.980469 259.59375 308.050781 261.738281 C 307.019531 262.882812 305.59375 263.46875 304.164062 263.46875 " fill-opacity="1" fill-rule="nonzero"/><path fill="#ffffff" d="M 318.632812 240.347656 C 317.746094 240.347656 316.851562 240.125 316.023438 239.648438 L 294.71875 227.347656 C 292.222656 225.902344 291.367188 222.710938 292.8125 220.207031 C 294.25 217.703125 297.4375 216.851562 299.945312 218.292969 L 321.246094 230.59375 C 323.75 232.039062 324.601562 235.234375 323.160156 237.738281 C 322.191406 239.414062 320.4375 240.347656 318.632812 240.347656 " fill-opacity="1" fill-rule="nonzero"/><path fill="#ffffff" d="M 327.984375 214.726562 C 327.453125 214.726562 326.90625 214.644531 326.371094 214.472656 L 302.976562 206.863281 C 300.230469 205.972656 298.730469 203.023438 299.621094 200.28125 C 300.507812 197.539062 303.460938 196.039062 306.207031 196.925781 L 329.601562 204.53125 C 332.351562 205.421875 333.847656 208.371094 332.957031 211.117188 C 332.238281 213.320312 330.191406 214.726562 327.984375 214.726562 " fill-opacity="1" fill-rule="nonzero"/><g clip-path="url(#f67adc4e9d)"><path fill="#ffffff" d="M 331.8125 187.71875 C 331.628906 187.71875 331.441406 187.703125 331.257812 187.6875 L 306.792969 185.117188 C 303.921875 184.816406 301.839844 182.242188 302.140625 179.371094 C 302.445312 176.5 305.015625 174.441406 307.886719 174.722656 L 332.351562 177.292969 C 335.222656 177.59375 337.304688 180.167969 337 183.039062 C 336.71875 185.722656 334.449219 187.71875 331.8125 187.71875 " fill-opacity="1" fill-rule="nonzero"/></g><path fill="#ffffff" d="M 305.457031 163.078125 C 302.816406 163.078125 300.550781 161.082031 300.265625 158.398438 C 299.964844 155.527344 302.046875 152.957031 304.917969 152.65625 L 329.382812 150.078125 C 332.265625 149.796875 334.820312 151.863281 335.125 154.730469 C 335.421875 157.605469 333.339844 160.175781 330.472656 160.476562 L 306.007812 163.046875 C 305.820312 163.066406 305.640625 163.078125 305.457031 163.078125 " fill-opacity="1" fill-rule="nonzero"/><path fill="#ffffff" d="M 299.039062 141.886719 C 296.832031 141.886719 294.789062 140.480469 294.066406 138.277344 C 293.175781 135.527344 294.675781 132.582031 297.421875 131.6875 L 320.8125 124.082031 C 323.566406 123.199219 326.507812 124.699219 327.402344 127.441406 C 328.292969 130.183594 326.789062 133.132812 324.046875 134.023438 L 300.648438 141.628906 C 300.117188 141.804688 299.566406 141.886719 299.039062 141.886719 " fill-opacity="1" fill-rule="nonzero"/><path fill="#ffffff" d="M 288.351562 122.484375 C 286.542969 122.484375 284.789062 121.550781 283.816406 119.875 C 282.378906 117.371094 283.234375 114.179688 285.734375 112.730469 L 307.035156 100.433594 C 309.535156 98.988281 312.730469 99.851562 314.175781 102.347656 C 315.613281 104.847656 314.761719 108.042969 312.257812 109.484375 L 290.957031 121.789062 C 290.136719 122.261719 289.238281 122.484375 288.351562 122.484375 " fill-opacity="1" fill-rule="nonzero"/><path fill="#ffffff" d="M 273.863281 105.742188 C 272.429688 105.742188 271.003906 105.15625 269.976562 104.011719 C 268.046875 101.863281 268.21875 98.5625 270.363281 96.632812 L 288.644531 80.167969 C 290.789062 78.234375 294.089844 78.402344 296.019531 80.554688 C 297.953125 82.695312 297.777344 86 295.632812 87.933594 L 277.355469 104.398438 C 276.355469 105.292969 275.101562 105.742188 273.863281 105.742188 " fill-opacity="1" fill-rule="nonzero"/><path fill="#ffffff" d="M 256.199219 92.367188 C 255.136719 92.367188 254.0625 92.042969 253.136719 91.371094 C 250.796875 89.671875 250.28125 86.40625 251.976562 84.070312 L 266.433594 64.167969 C 268.132812 61.835938 271.394531 61.3125 273.734375 63.011719 C 276.070312 64.703125 276.585938 67.972656 274.894531 70.3125 L 260.429688 90.214844 C 259.410156 91.621094 257.820312 92.367188 256.199219 92.367188 " fill-opacity="1" fill-rule="nonzero"/><path fill="#ffffff" d="M 236.160156 82.964844 C 235.445312 82.964844 234.726562 82.820312 234.035156 82.511719 C 231.402344 81.339844 230.210938 78.25 231.386719 75.613281 L 241.390625 53.132812 C 242.566406 50.496094 245.652344 49.316406 248.292969 50.484375 C 250.925781 51.660156 252.113281 54.75 250.9375 57.386719 L 240.933594 79.859375 C 240.066406 81.808594 238.15625 82.964844 236.160156 82.964844 " fill-opacity="1" fill-rule="nonzero"/><path fill="#ffffff" d="M 214.601562 77.933594 C 214.242188 77.933594 213.875 77.898438 213.511719 77.816406 C 210.691406 77.214844 208.886719 74.445312 209.488281 71.617188 L 214.597656 47.554688 C 215.199219 44.726562 217.976562 42.914062 220.796875 43.527344 C 223.617188 44.128906 225.417969 46.902344 224.820312 49.726562 L 219.707031 73.792969 C 219.183594 76.25 217.011719 77.933594 214.601562 77.933594 " fill-opacity="1" fill-rule="nonzero"/><path fill="#ffffff" d="M 138.222656 204.097656 C 138.199219 202.578125 138.171875 201.296875 138.148438 200.257812 C 138.128906 199.214844 138.113281 198.105469 138.113281 196.933594 C 138.113281 195.753906 138.128906 194.1875 138.148438 192.230469 C 138.273438 188.183594 139.253906 184.769531 141.089844 181.980469 C 142.929688 179.1875 145.632812 176.824219 149.207031 174.886719 L 154.089844 172.242188 C 155.808594 171.3125 156.902344 170.1875 157.382812 168.878906 C 157.859375 167.566406 158.132812 166.339844 158.210938 165.1875 C 158.304688 163.863281 158.359375 162.429688 158.375 160.886719 C 158.382812 159.34375 158.355469 157.902344 158.277344 156.554688 C 158.109375 153.90625 156.332031 152.585938 152.953125 152.585938 C 151.242188 152.585938 150 152.929688 149.25 153.613281 C 148.484375 154.304688 148.085938 155.195312 148.035156 156.296875 C 147.984375 158.207031 147.945312 159.984375 147.925781 161.621094 C 147.898438 163.265625 147.945312 165.050781 148.070312 166.988281 L 138.296875 166.988281 C 138.222656 165.34375 138.167969 163.800781 138.132812 162.339844 C 138.09375 160.882812 138.105469 159.519531 138.148438 158.242188 C 138.347656 153.367188 139.601562 149.878906 141.917969 147.769531 C 144.230469 145.664062 147.910156 144.613281 152.953125 144.613281 C 158.296875 144.613281 162.109375 145.664062 164.398438 147.769531 C 166.6875 149.878906 167.929688 153.367188 168.125 158.242188 C 168.21875 160.691406 168.21875 163.007812 168.125 165.1875 C 167.980469 169.105469 166.972656 172.261719 165.117188 174.644531 C 163.25 177.039062 160.828125 179.050781 157.839844 180.691406 L 152.292969 183.703125 C 150.726562 184.5625 149.644531 185.84375 149.042969 187.546875 C 148.441406 189.25 148.144531 190.808594 148.144531 192.230469 L 148.144531 195.535156 L 167.425781 195.535156 L 167.425781 204.097656 L 138.222656 204.097656 " fill-opacity="1" fill-rule="nonzero"/><path fill="#ffffff" d="M 180.359375 180.136719 L 188.660156 180.136719 L 189.945312 166.105469 L 191.082031 153.871094 L 189.027344 153.871094 L 185.207031 166.105469 Z M 188.660156 204.097656 L 188.660156 188.628906 L 170.882812 188.628906 L 170.882812 180.582031 L 184.765625 145.308594 L 197.917969 145.308594 L 197.917969 180.136719 L 204.378906 180.136719 L 204.378906 188.628906 L 197.917969 188.628906 L 197.917969 204.097656 L 188.660156 204.097656 " fill-opacity="1" fill-rule="nonzero"/><path fill="#ffffff" d="M 243.132812 204.097656 L 259.992188 153.871094 L 238.984375 153.871094 L 238.984375 145.308594 L 269.835938 145.308594 L 269.835938 154.089844 L 253.382812 204.097656 L 243.132812 204.097656 " fill-opacity="1" fill-rule="nonzero"/><path fill="#ffffff" d="M 217.472656 210.6875 L 235.269531 140.953125 L 225.71875 140.953125 L 207.917969 210.6875 L 217.472656 210.6875 " fill-opacity="1" fill-rule="nonzero"/></svg>