<svg xmlns="http://www.w3.org/2000/svg" xmlns:xlink="http://www.w3.org/1999/xlink" width="500" zoomAndPan="magnify" viewBox="0 0 375 374.999991" height="500" preserveAspectRatio="xMidYMid meet" version="1.0"><defs><clipPath id="688ea56a63"><path d="M 37.5 27.070312 L 327.75 27.070312 L 327.75 337.570312 L 37.5 337.570312 Z M 37.5 27.070312 " clip-rule="nonzero"/></clipPath></defs><g clip-path="url(#688ea56a63)"><path fill="#0080e6" d="M 321.261719 324.667969 L 295.46875 324.667969 L 295.46875 305.320312 L 314.8125 305.320312 C 318.375 305.320312 321.261719 302.433594 321.261719 298.871094 L 321.261719 124.722656 C 321.261719 122.457031 320.074219 120.355469 318.132812 119.191406 C 283.949219 98.6875 285.507812 99.496094 284.296875 99.15625 C 284.050781 99.089844 283.800781 99.039062 283.550781 99 C 283.464844 98.984375 283.378906 98.980469 283.296875 98.972656 C 282.738281 98.910156 282.1875 98.921875 281.679688 98.992188 C 280.984375 99.089844 260.40625 102.53125 243.882812 105.28125 L 243.882812 60.222656 C 243.882812 58.261719 242.992188 56.410156 241.464844 55.1875 C 206.320312 27.082031 209.113281 29.21875 208.246094 28.753906 C 207.203125 28.191406 206.050781 27.941406 204.945312 27.980469 C 204.757812 27.988281 204.570312 28.011719 204.382812 28.035156 C 204.308594 28.042969 203.914062 28.066406 203.269531 28.265625 C 202.675781 28.453125 174.726562 41.230469 125.140625 63.8125 C 122.84375 64.859375 121.367188 67.152344 121.367188 69.679688 L 121.367188 115.414062 C 76.238281 98.492188 78.359375 99.238281 77.558594 99.066406 C 76.734375 98.894531 75.84375 98.882812 74.984375 99.054688 C 74.902344 99.070312 74.816406 99.078125 74.734375 99.097656 C 74.179688 99.230469 73.710938 99.40625 73.171875 99.695312 C 73.089844 99.738281 73.011719 99.792969 72.933594 99.839844 C 72.808594 99.914062 72.679688 99.984375 72.558594 100.070312 C 72.519531 100.09375 72.488281 100.125 72.453125 100.152344 C 71.984375 100.484375 52.992188 114.742188 46.566406 119.5625 C 44.945312 120.78125 43.988281 122.691406 43.988281 124.722656 L 43.988281 298.871094 C 43.988281 302.433594 46.875 305.320312 50.4375 305.320312 L 56.882812 305.320312 L 56.882812 324.667969 L 43.988281 324.667969 C 40.425781 324.667969 37.539062 327.558594 37.539062 331.121094 C 37.539062 334.679688 40.425781 337.570312 43.988281 337.570312 C 47.714844 337.570312 317.457031 337.570312 321.261719 337.570312 C 324.824219 337.570312 327.710938 334.679688 327.710938 331.121094 C 327.710938 327.558594 324.824219 324.667969 321.261719 324.667969 Z M 282.574219 324.667969 L 263.226562 324.667969 L 263.226562 305.320312 L 282.574219 305.320312 Z M 308.367188 292.421875 L 289.019531 292.421875 L 289.019531 116.765625 L 308.367188 128.375 Z M 276.125 292.421875 L 263.226562 292.421875 L 263.226562 266.621094 C 263.226562 263.058594 260.339844 260.171875 256.78125 260.171875 L 211.640625 260.171875 L 211.640625 123.734375 L 276.125 112.984375 Z M 230.988281 107.433594 L 211.640625 110.65625 L 211.640625 47.84375 L 230.988281 63.320312 Z M 134.261719 73.832031 L 198.746094 44.449219 C 198.746094 52.945312 198.746094 250.027344 198.746094 260.171875 L 153.609375 260.171875 C 150.046875 260.171875 147.160156 263.058594 147.160156 266.621094 L 147.160156 292.421875 L 134.261719 292.421875 C 134.261719 281.960938 134.261719 84.164062 134.261719 73.832031 Z M 121.367188 292.421875 L 82.675781 292.421875 L 82.675781 114.679688 L 121.367188 129.191406 Z M 56.882812 127.945312 L 69.78125 118.273438 L 69.78125 292.421875 C 65.269531 292.421875 61.394531 292.421875 56.882812 292.421875 Z M 69.78125 305.320312 C 85.441406 305.320312 131.453125 305.320312 147.160156 305.320312 L 147.160156 324.667969 L 69.78125 324.667969 Z M 160.054688 324.667969 C 160.054688 318.425781 160.054688 279.355469 160.054688 273.070312 C 170.976562 273.070312 239.339844 273.070312 250.332031 273.070312 C 250.332031 279.3125 250.332031 318.386719 250.332031 324.667969 Z M 160.054688 324.667969 " fill-opacity="1" fill-rule="nonzero"/></g><path fill="#0080e6" d="M 147.160156 79.570312 L 160.054688 79.570312 L 160.054688 105.371094 L 147.160156 105.371094 Z M 147.160156 79.570312 " fill-opacity="1" fill-rule="nonzero"/><path fill="#0080e6" d="M 166.503906 79.570312 L 179.402344 79.570312 L 179.402344 105.371094 L 166.503906 105.371094 Z M 166.503906 79.570312 " fill-opacity="1" fill-rule="nonzero"/><path fill="#0080e6" d="M 147.160156 111.820312 L 160.054688 111.820312 L 160.054688 137.621094 L 147.160156 137.621094 Z M 147.160156 111.820312 " fill-opacity="1" fill-rule="nonzero"/><path fill="#0080e6" d="M 166.503906 111.820312 L 179.402344 111.820312 L 179.402344 137.621094 L 166.503906 137.621094 Z M 166.503906 111.820312 " fill-opacity="1" fill-rule="nonzero"/><path fill="#0080e6" d="M 147.160156 144.070312 L 160.054688 144.070312 L 160.054688 169.871094 L 147.160156 169.871094 Z M 147.160156 144.070312 " fill-opacity="1" fill-rule="nonzero"/><path fill="#0080e6" d="M 166.503906 144.070312 L 179.402344 144.070312 L 179.402344 169.871094 L 166.503906 169.871094 Z M 166.503906 144.070312 " fill-opacity="1" fill-rule="nonzero"/><path fill="#0080e6" d="M 147.160156 176.320312 L 160.054688 176.320312 L 160.054688 202.121094 L 147.160156 202.121094 Z M 147.160156 176.320312 " fill-opacity="1" fill-rule="nonzero"/><path fill="#0080e6" d="M 95.574219 144.070312 L 108.46875 144.070312 L 108.46875 169.871094 L 95.574219 169.871094 Z M 95.574219 144.070312 " fill-opacity="1" fill-rule="nonzero"/><path fill="#0080e6" d="M 95.574219 176.320312 L 108.46875 176.320312 L 108.46875 202.121094 L 95.574219 202.121094 Z M 95.574219 176.320312 " fill-opacity="1" fill-rule="nonzero"/><path fill="#0080e6" d="M 95.574219 208.570312 L 108.46875 208.570312 L 108.46875 234.371094 L 95.574219 234.371094 Z M 95.574219 208.570312 " fill-opacity="1" fill-rule="nonzero"/><path fill="#0080e6" d="M 95.574219 240.820312 L 108.46875 240.820312 L 108.46875 266.621094 L 95.574219 266.621094 Z M 95.574219 240.820312 " fill-opacity="1" fill-rule="nonzero"/><path fill="#0080e6" d="M 166.503906 176.320312 L 179.402344 176.320312 L 179.402344 202.121094 L 166.503906 202.121094 Z M 166.503906 176.320312 " fill-opacity="1" fill-rule="nonzero"/><path fill="#0080e6" d="M 218.089844 131.171875 L 230.988281 131.171875 L 230.988281 150.519531 L 218.089844 150.519531 Z M 218.089844 131.171875 " fill-opacity="1" fill-rule="nonzero"/><path fill="#0080e6" d="M 237.433594 131.171875 L 250.332031 131.171875 L 250.332031 150.519531 L 237.433594 150.519531 Z M 237.433594 131.171875 " fill-opacity="1" fill-rule="nonzero"/><path fill="#0080e6" d="M 256.78125 131.171875 L 269.675781 131.171875 L 269.675781 150.519531 L 256.78125 150.519531 Z M 256.78125 131.171875 " fill-opacity="1" fill-rule="nonzero"/><path fill="#0080e6" d="M 218.089844 156.972656 L 230.988281 156.972656 L 230.988281 176.320312 L 218.089844 176.320312 Z M 218.089844 156.972656 " fill-opacity="1" fill-rule="nonzero"/><path fill="#0080e6" d="M 237.433594 156.972656 L 250.332031 156.972656 L 250.332031 176.320312 L 237.433594 176.320312 Z M 237.433594 156.972656 " fill-opacity="1" fill-rule="nonzero"/><path fill="#0080e6" d="M 256.78125 156.972656 L 269.675781 156.972656 L 269.675781 176.320312 L 256.78125 176.320312 Z M 256.78125 156.972656 " fill-opacity="1" fill-rule="nonzero"/><path fill="#0080e6" d="M 218.089844 182.769531 L 230.988281 182.769531 L 230.988281 202.121094 L 218.089844 202.121094 Z M 218.089844 182.769531 " fill-opacity="1" fill-rule="nonzero"/><path fill="#0080e6" d="M 237.433594 182.769531 L 250.332031 182.769531 L 250.332031 202.121094 L 237.433594 202.121094 Z M 237.433594 182.769531 " fill-opacity="1" fill-rule="nonzero"/><path fill="#0080e6" d="M 256.78125 182.769531 L 269.675781 182.769531 L 269.675781 202.121094 L 256.78125 202.121094 Z M 256.78125 182.769531 " fill-opacity="1" fill-rule="nonzero"/><path fill="#0080e6" d="M 218.089844 208.570312 L 230.988281 208.570312 L 230.988281 227.921875 L 218.089844 227.921875 Z M 218.089844 208.570312 " fill-opacity="1" fill-rule="nonzero"/><path fill="#0080e6" d="M 237.433594 208.570312 L 250.332031 208.570312 L 250.332031 227.921875 L 237.433594 227.921875 Z M 237.433594 208.570312 " fill-opacity="1" fill-rule="nonzero"/><path fill="#0080e6" d="M 218.089844 234.371094 L 230.988281 234.371094 L 230.988281 253.71875 L 218.089844 253.71875 Z M 218.089844 234.371094 " fill-opacity="1" fill-rule="nonzero"/><path fill="#0080e6" d="M 147.160156 208.570312 L 160.054688 208.570312 L 160.054688 234.371094 L 147.160156 234.371094 Z M 147.160156 208.570312 " fill-opacity="1" fill-rule="nonzero"/><path fill="#0080e6" d="M 172.953125 279.519531 L 237.433594 279.519531 L 237.433594 292.421875 L 172.953125 292.421875 Z M 172.953125 279.519531 " fill-opacity="1" fill-rule="nonzero"/><path fill="#0080e6" d="M 172.953125 298.871094 L 237.433594 298.871094 L 237.433594 311.769531 L 172.953125 311.769531 Z M 172.953125 298.871094 " fill-opacity="1" fill-rule="nonzero"/></svg>