<svg xmlns="http://www.w3.org/2000/svg" xmlns:xlink="http://www.w3.org/1999/xlink" width="500" zoomAndPan="magnify" viewBox="0 0 375 374.999991" height="500" preserveAspectRatio="xMidYMid meet" version="1.0"><defs><clipPath id="2f87aac563"><path d="M 46.613281 24.703125 L 328.613281 24.703125 L 328.613281 350.203125 L 46.613281 350.203125 Z M 46.613281 24.703125 " clip-rule="nonzero"/></clipPath></defs><path fill="#0080e6" d="M 230.996094 100.695312 C 230.996094 99.273438 230.929688 97.855469 230.789062 96.441406 C 230.648438 95.027344 230.441406 93.625 230.164062 92.230469 C 229.886719 90.835938 229.542969 89.460938 229.128906 88.101562 C 228.71875 86.742188 228.238281 85.40625 227.695312 84.09375 C 227.152344 82.78125 226.542969 81.5 225.875 80.246094 C 225.203125 78.992188 224.476562 77.773438 223.6875 76.59375 C 222.898438 75.414062 222.050781 74.273438 221.148438 73.175781 C 220.25 72.074219 219.296875 71.023438 218.289062 70.019531 C 217.285156 69.015625 216.234375 68.0625 215.136719 67.160156 C 214.039062 66.261719 212.898438 65.414062 211.714844 64.625 C 210.535156 63.835938 209.316406 63.105469 208.0625 62.4375 C 206.8125 61.765625 205.527344 61.160156 204.214844 60.617188 C 202.902344 60.074219 201.566406 59.59375 200.207031 59.183594 C 198.847656 58.769531 197.46875 58.425781 196.078125 58.148438 C 194.683594 57.871094 193.28125 57.664062 191.867188 57.523438 C 190.453125 57.382812 189.035156 57.316406 187.613281 57.316406 C 186.191406 57.316406 184.773438 57.382812 183.359375 57.523438 C 181.945312 57.664062 180.542969 57.871094 179.148438 58.148438 C 177.753906 58.425781 176.378906 58.769531 175.019531 59.183594 C 173.660156 59.59375 172.324219 60.074219 171.011719 60.617188 C 169.699219 61.160156 168.414062 61.765625 167.160156 62.4375 C 165.910156 63.105469 164.691406 63.835938 163.511719 64.625 C 162.328125 65.414062 161.1875 66.261719 160.089844 67.160156 C 158.992188 68.0625 157.941406 69.015625 156.933594 70.019531 C 155.929688 71.023438 154.976562 72.074219 154.078125 73.175781 C 153.175781 74.273438 152.328125 75.414062 151.539062 76.59375 C 150.75 77.773438 150.019531 78.992188 149.351562 80.246094 C 148.679688 81.5 148.074219 82.78125 147.53125 84.09375 C 146.988281 85.40625 146.507812 86.742188 146.097656 88.101562 C 145.683594 89.460938 145.339844 90.835938 145.0625 92.230469 C 144.785156 93.625 144.578125 95.027344 144.4375 96.441406 C 144.296875 97.855469 144.226562 99.273438 144.226562 100.695312 C 144.226562 102.113281 144.296875 103.53125 144.4375 104.945312 C 144.578125 106.359375 144.785156 107.761719 145.0625 109.15625 C 145.339844 110.550781 145.683594 111.925781 146.097656 113.285156 C 146.507812 114.644531 146.988281 115.980469 147.53125 117.292969 C 148.074219 118.605469 148.679688 119.890625 149.351562 121.144531 C 150.019531 122.394531 150.75 123.613281 151.539062 124.792969 C 152.328125 125.976562 153.175781 127.117188 154.078125 128.214844 C 154.976562 129.3125 155.929688 130.363281 156.933594 131.367188 C 157.941406 132.371094 158.992188 133.324219 160.089844 134.226562 C 161.1875 135.128906 162.328125 135.972656 163.511719 136.761719 C 164.691406 137.550781 165.910156 138.28125 167.160156 138.953125 C 168.414062 139.621094 169.699219 140.226562 171.011719 140.773438 C 172.324219 141.316406 173.660156 141.792969 175.019531 142.207031 C 176.378906 142.617188 177.753906 142.964844 179.148438 143.238281 C 180.542969 143.515625 181.945312 143.726562 183.359375 143.863281 C 184.773438 144.003906 186.191406 144.074219 187.613281 144.074219 C 189.035156 144.074219 190.453125 144.003906 191.867188 143.863281 C 193.28125 143.726562 194.683594 143.515625 196.078125 143.238281 C 197.46875 142.964844 198.847656 142.617188 200.207031 142.207031 C 201.566406 141.792969 202.902344 141.316406 204.214844 140.773438 C 205.527344 140.226562 206.8125 139.621094 208.0625 138.953125 C 209.316406 138.28125 210.535156 137.550781 211.714844 136.761719 C 212.898438 135.972656 214.039062 135.128906 215.136719 134.226562 C 216.234375 133.324219 217.285156 132.371094 218.289062 131.367188 C 219.296875 130.363281 220.25 129.3125 221.148438 128.214844 C 222.050781 127.117188 222.898438 125.976562 223.6875 124.792969 C 224.476562 123.613281 225.203125 122.394531 225.875 121.144531 C 226.542969 119.890625 227.152344 118.605469 227.695312 117.292969 C 228.238281 115.980469 228.71875 114.644531 229.128906 113.285156 C 229.542969 111.925781 229.886719 110.550781 230.164062 109.15625 C 230.441406 107.761719 230.648438 106.359375 230.789062 104.945312 C 230.929688 103.53125 230.996094 102.113281 230.996094 100.695312 Z M 155.074219 100.695312 C 155.074219 99.628906 155.125 98.566406 155.230469 97.503906 C 155.335938 96.445312 155.492188 95.390625 155.699219 94.347656 C 155.90625 93.300781 156.167969 92.269531 156.476562 91.25 C 156.785156 90.230469 157.144531 89.226562 157.550781 88.242188 C 157.960938 87.257812 158.414062 86.296875 158.917969 85.355469 C 159.417969 84.417969 159.964844 83.503906 160.558594 82.617188 C 161.148438 81.734375 161.785156 80.878906 162.460938 80.054688 C 163.136719 79.230469 163.851562 78.441406 164.605469 77.6875 C 165.359375 76.933594 166.148438 76.21875 166.972656 75.542969 C 167.792969 74.867188 168.648438 74.234375 169.535156 73.640625 C 170.421875 73.050781 171.335938 72.503906 172.273438 72 C 173.214844 71.5 174.175781 71.042969 175.160156 70.636719 C 176.144531 70.226562 177.148438 69.871094 178.167969 69.558594 C 179.1875 69.25 180.21875 68.992188 181.265625 68.785156 C 182.308594 68.578125 183.363281 68.421875 184.421875 68.316406 C 185.484375 68.210938 186.546875 68.160156 187.613281 68.160156 C 188.679688 68.160156 189.742188 68.210938 190.800781 68.316406 C 191.863281 68.421875 192.914062 68.578125 193.960938 68.785156 C 195.007812 68.992188 196.039062 69.25 197.058594 69.558594 C 198.078125 69.871094 199.082031 70.226562 200.066406 70.636719 C 201.050781 71.042969 202.011719 71.5 202.953125 72 C 203.890625 72.503906 204.804688 73.050781 205.691406 73.640625 C 206.578125 74.234375 207.429688 74.867188 208.253906 75.542969 C 209.078125 76.21875 209.867188 76.933594 210.621094 77.6875 C 211.375 78.441406 212.089844 79.230469 212.765625 80.054688 C 213.441406 80.878906 214.074219 81.734375 214.667969 82.617188 C 215.261719 83.503906 215.808594 84.417969 216.308594 85.355469 C 216.8125 86.296875 217.265625 87.257812 217.675781 88.242188 C 218.082031 89.226562 218.441406 90.230469 218.75 91.25 C 219.058594 92.269531 219.320312 93.300781 219.527344 94.347656 C 219.734375 95.390625 219.890625 96.445312 219.996094 97.503906 C 220.097656 98.566406 220.152344 99.628906 220.152344 100.695312 C 220.152344 101.757812 220.097656 102.824219 219.996094 103.882812 C 219.890625 104.945312 219.734375 105.996094 219.527344 107.042969 C 219.320312 108.085938 219.058594 109.117188 218.75 110.136719 C 218.441406 111.15625 218.082031 112.160156 217.675781 113.144531 C 217.265625 114.128906 216.8125 115.089844 216.308594 116.03125 C 215.808594 116.96875 215.261719 117.882812 214.667969 118.769531 C 214.074219 119.65625 213.441406 120.511719 212.765625 121.332031 C 212.089844 122.15625 211.375 122.945312 210.621094 123.699219 C 209.867188 124.453125 209.078125 125.167969 208.253906 125.84375 C 207.429688 126.519531 206.578125 127.152344 205.691406 127.746094 C 204.804688 128.335938 203.890625 128.886719 202.953125 129.386719 C 202.011719 129.890625 201.050781 130.34375 200.066406 130.753906 C 199.082031 131.160156 198.078125 131.519531 197.058594 131.828125 C 196.039062 132.136719 195.007812 132.394531 193.960938 132.605469 C 192.914062 132.8125 191.863281 132.96875 190.800781 133.070312 C 189.742188 133.175781 188.679688 133.230469 187.613281 133.230469 C 186.546875 133.230469 185.484375 133.175781 184.421875 133.070312 C 183.363281 132.96875 182.308594 132.8125 181.265625 132.605469 C 180.21875 132.394531 179.1875 132.136719 178.167969 131.828125 C 177.148438 131.519531 176.144531 131.160156 175.160156 130.753906 C 174.175781 130.34375 173.214844 129.890625 172.273438 129.386719 C 171.335938 128.886719 170.421875 128.335938 169.535156 127.746094 C 168.648438 127.152344 167.792969 126.519531 166.972656 125.84375 C 166.148438 125.167969 165.359375 124.453125 164.605469 123.699219 C 163.851562 122.945312 163.136719 122.15625 162.460938 121.332031 C 161.785156 120.511719 161.148438 119.65625 160.558594 118.769531 C 159.964844 117.882812 159.417969 116.96875 158.917969 116.03125 C 158.414062 115.089844 157.960938 114.128906 157.550781 113.144531 C 157.144531 112.160156 156.785156 111.15625 156.476562 110.136719 C 156.167969 109.117188 155.90625 108.085938 155.699219 107.042969 C 155.492188 105.996094 155.335938 104.945312 155.230469 103.882812 C 155.125 102.824219 155.074219 101.757812 155.074219 100.695312 Z M 155.074219 100.695312 " fill-opacity="1" fill-rule="nonzero"/><g clip-path="url(#2f87aac563)"><path fill="#0080e6" d="M 68.628906 245.363281 L 46.613281 312.167969 C 46.613281 312.710938 46.613281 344.703125 46.613281 344.703125 C 46.613281 345.058594 46.648438 345.414062 46.71875 345.761719 C 46.785156 346.109375 46.890625 346.449219 47.027344 346.777344 C 47.164062 347.109375 47.328125 347.421875 47.527344 347.714844 C 47.726562 348.011719 47.949219 348.285156 48.203125 348.539062 C 48.453125 348.789062 48.726562 349.015625 49.023438 349.210938 C 49.320312 349.410156 49.632812 349.578125 49.960938 349.714844 C 50.289062 349.851562 50.628906 349.953125 50.976562 350.023438 C 51.328125 350.09375 51.679688 350.125 52.035156 350.125 L 323.191406 350.125 C 323.546875 350.125 323.898438 350.09375 324.246094 350.023438 C 324.597656 349.953125 324.9375 349.851562 325.265625 349.714844 C 325.59375 349.578125 325.90625 349.410156 326.203125 349.210938 C 326.5 349.015625 326.773438 348.789062 327.023438 348.539062 C 327.277344 348.285156 327.5 348.011719 327.699219 347.714844 C 327.898438 347.421875 328.0625 347.109375 328.199219 346.777344 C 328.335938 346.449219 328.4375 346.109375 328.507812 345.761719 C 328.578125 345.414062 328.613281 345.058594 328.613281 344.703125 C 328.613281 344.703125 328.613281 312.710938 328.613281 312.167969 L 306.921875 245.363281 C 306.730469 244.804688 306.457031 244.289062 306.101562 243.816406 C 305.742188 243.34375 305.320312 242.941406 304.828125 242.609375 C 304.339844 242.277344 303.808594 242.03125 303.238281 241.871094 C 302.667969 241.710938 302.089844 241.648438 301.496094 241.675781 L 213.046875 241.675781 L 257.136719 131.820312 C 258.402344 128.898438 259.480469 125.914062 260.371094 122.859375 C 261.265625 119.808594 261.964844 116.710938 262.476562 113.570312 C 262.984375 110.429688 263.296875 107.269531 263.410156 104.089844 C 263.527344 100.914062 263.445312 97.738281 263.167969 94.570312 C 262.890625 91.402344 262.417969 88.261719 261.75 85.152344 C 261.082031 82.042969 260.222656 78.984375 259.175781 75.980469 C 258.125 72.976562 256.898438 70.050781 255.484375 67.199219 C 254.074219 64.347656 252.492188 61.59375 250.738281 58.941406 C 249.886719 57.636719 248.992188 56.359375 248.0625 55.109375 C 247.128906 53.859375 246.160156 52.636719 245.152344 51.449219 C 244.148438 50.257812 243.101562 49.097656 242.023438 47.972656 C 240.945312 46.847656 239.832031 45.757812 238.6875 44.703125 C 237.539062 43.644531 236.359375 42.625 235.148438 41.644531 C 233.941406 40.660156 232.699219 39.714844 231.433594 38.808594 C 230.164062 37.902344 228.867188 37.035156 227.546875 36.210938 C 226.222656 35.382812 224.875 34.601562 223.503906 33.859375 C 222.132812 33.117188 220.742188 32.417969 219.328125 31.761719 C 217.914062 31.105469 216.480469 30.492188 215.027344 29.925781 C 213.574219 29.359375 212.105469 28.839844 210.621094 28.363281 C 209.136719 27.886719 207.636719 27.457031 206.125 27.074219 C 204.613281 26.691406 203.09375 26.355469 201.558594 26.066406 C 200.027344 25.777344 198.488281 25.539062 196.941406 25.34375 C 195.394531 25.152344 193.84375 25.007812 192.285156 24.910156 C 190.730469 24.8125 189.171875 24.765625 187.613281 24.765625 C 186.054688 24.765625 184.496094 24.8125 182.941406 24.910156 C 181.382812 25.007812 179.832031 25.152344 178.285156 25.34375 C 176.738281 25.539062 175.199219 25.777344 173.664062 26.066406 C 172.132812 26.355469 170.613281 26.691406 169.101562 27.074219 C 167.589844 27.457031 166.089844 27.886719 164.605469 28.363281 C 163.121094 28.839844 161.652344 29.359375 160.199219 29.925781 C 158.746094 30.492188 157.3125 31.105469 155.898438 31.761719 C 154.484375 32.417969 153.09375 33.117188 151.722656 33.859375 C 150.351562 34.601562 149.003906 35.382812 147.679688 36.210938 C 146.359375 37.035156 145.0625 37.902344 143.792969 38.808594 C 142.523438 39.714844 141.285156 40.660156 140.074219 41.644531 C 138.867188 42.625 137.6875 43.644531 136.539062 44.703125 C 135.394531 45.757812 134.28125 46.847656 133.203125 47.972656 C 132.121094 49.097656 131.078125 50.257812 130.070312 51.449219 C 129.066406 52.636719 128.09375 53.859375 127.164062 55.109375 C 126.234375 56.359375 125.339844 57.636719 124.488281 58.941406 C 122.734375 61.589844 121.15625 64.332031 119.742188 67.175781 C 118.332031 70.019531 117.101562 72.941406 116.054688 75.9375 C 115.003906 78.933594 114.148438 81.980469 113.476562 85.085938 C 112.808594 88.1875 112.332031 91.320312 112.050781 94.480469 C 111.769531 97.644531 111.6875 100.808594 111.800781 103.984375 C 111.914062 107.15625 112.222656 110.308594 112.726562 113.441406 C 113.230469 116.574219 113.925781 119.667969 114.816406 122.714844 C 115.703125 125.761719 116.777344 128.742188 118.035156 131.65625 L 162.179688 241.675781 L 73.726562 241.675781 C 73.164062 241.683594 72.613281 241.773438 72.078125 241.949219 C 71.542969 242.125 71.046875 242.375 70.589844 242.707031 C 70.132812 243.035156 69.738281 243.429688 69.402344 243.882812 C 69.070312 244.335938 68.8125 244.832031 68.628906 245.363281 Z M 127.960938 339.28125 L 57.460938 339.28125 L 57.460938 317.59375 L 127.960938 317.59375 Z M 128.773438 306.746094 L 59.628906 306.746094 L 66.839844 285.058594 L 132.460938 285.058594 Z M 317.765625 339.28125 L 247.265625 339.28125 L 247.265625 317.59375 L 317.765625 317.59375 Z M 308.386719 285.058594 L 315.597656 306.746094 L 246.398438 306.746094 L 242.765625 285.058594 Z M 297.539062 252.523438 L 304.75 274.210938 L 240.976562 274.210938 L 237.398438 252.523438 Z M 226.386719 252.523438 L 230.023438 274.210938 L 199.976562 274.210938 L 208.707031 252.523438 Z M 127.960938 127.804688 C 126.859375 125.289062 125.917969 122.714844 125.140625 120.082031 C 124.359375 117.449219 123.746094 114.777344 123.300781 112.066406 C 122.855469 109.359375 122.578125 106.632812 122.472656 103.886719 C 122.367188 101.140625 122.429688 98.402344 122.667969 95.667969 C 122.902344 92.929688 123.308594 90.21875 123.882812 87.535156 C 124.457031 84.847656 125.195312 82.207031 126.097656 79.617188 C 127 77.023438 128.0625 74.496094 129.28125 72.035156 C 130.5 69.574219 131.867188 67.195312 133.382812 64.90625 C 134.109375 63.777344 134.871094 62.675781 135.667969 61.59375 C 136.464844 60.515625 137.292969 59.460938 138.15625 58.429688 C 139.019531 57.402344 139.910156 56.402344 140.835938 55.429688 C 141.761719 54.457031 142.714844 53.515625 143.699219 52.601562 C 144.679688 51.6875 145.691406 50.804688 146.730469 49.957031 C 147.769531 49.105469 148.832031 48.289062 149.921875 47.503906 C 151.011719 46.722656 152.125 45.972656 153.261719 45.257812 C 154.398438 44.542969 155.554688 43.867188 156.734375 43.222656 C 157.910156 42.582031 159.109375 41.976562 160.324219 41.410156 C 161.542969 40.84375 162.773438 40.3125 164.023438 39.824219 C 165.273438 39.332031 166.535156 38.878906 167.8125 38.46875 C 169.089844 38.058594 170.378906 37.6875 171.679688 37.355469 C 172.980469 37.023438 174.289062 36.734375 175.609375 36.484375 C 176.925781 36.234375 178.253906 36.023438 179.585938 35.859375 C 180.914062 35.691406 182.25 35.566406 183.589844 35.480469 C 184.929688 35.398438 186.269531 35.355469 187.613281 35.355469 C 188.957031 35.355469 190.296875 35.398438 191.636719 35.480469 C 192.976562 35.566406 194.308594 35.691406 195.640625 35.859375 C 196.972656 36.023438 198.300781 36.234375 199.617188 36.484375 C 200.9375 36.734375 202.246094 37.023438 203.546875 37.355469 C 204.847656 37.6875 206.136719 38.058594 207.414062 38.46875 C 208.691406 38.878906 209.953125 39.332031 211.203125 39.824219 C 212.453125 40.3125 213.683594 40.84375 214.902344 41.410156 C 216.117188 41.976562 217.316406 42.582031 218.492188 43.222656 C 219.671875 43.867188 220.828125 44.542969 221.964844 45.257812 C 223.101562 45.972656 224.214844 46.722656 225.304688 47.503906 C 226.394531 48.289062 227.457031 49.105469 228.496094 49.957031 C 229.535156 50.804688 230.542969 51.6875 231.527344 52.601562 C 232.511719 53.515625 233.464844 54.457031 234.390625 55.429688 C 235.316406 56.402344 236.207031 57.402344 237.070312 58.429688 C 237.933594 59.460938 238.761719 60.515625 239.558594 61.59375 C 240.355469 62.675781 241.117188 63.777344 241.84375 64.90625 C 243.359375 67.195312 244.726562 69.574219 245.945312 72.035156 C 247.164062 74.496094 248.222656 77.023438 249.128906 79.617188 C 250.03125 82.207031 250.769531 84.847656 251.34375 87.535156 C 251.917969 90.21875 252.324219 92.929688 252.558594 95.667969 C 252.792969 98.402344 252.859375 101.140625 252.753906 103.886719 C 252.648438 106.632812 252.371094 109.359375 251.925781 112.066406 C 251.480469 114.777344 250.867188 117.449219 250.085938 120.082031 C 249.308594 122.714844 248.367188 125.289062 247.265625 127.804688 L 187.613281 275.949219 Z M 148.839844 252.523438 L 166.515625 252.523438 L 175.25 274.210938 L 145.203125 274.210938 Z M 143.414062 285.058594 L 179.585938 285.058594 L 182.570312 292.484375 C 182.769531 292.992188 183.039062 293.457031 183.378906 293.882812 C 183.71875 294.304688 184.113281 294.671875 184.5625 294.976562 C 185.011719 295.28125 185.496094 295.515625 186.019531 295.675781 C 186.539062 295.835938 187.070312 295.914062 187.613281 295.914062 C 188.15625 295.914062 188.6875 295.835938 189.207031 295.675781 C 189.726562 295.515625 190.214844 295.28125 190.664062 294.976562 C 191.113281 294.671875 191.507812 294.304688 191.847656 293.882812 C 192.1875 293.457031 192.457031 292.992188 192.65625 292.484375 L 195.640625 285.058594 L 231.8125 285.058594 L 235.390625 306.746094 L 139.835938 306.746094 Z M 138.804688 317.59375 L 236.421875 317.59375 L 236.421875 339.28125 L 138.804688 339.28125 Z M 137.773438 252.523438 L 134.195312 274.210938 L 70.472656 274.210938 L 77.6875 252.523438 Z M 137.773438 252.523438 " fill-opacity="1" fill-rule="nonzero"/></g></svg>