<svg xmlns="http://www.w3.org/2000/svg" xmlns:xlink="http://www.w3.org/1999/xlink" width="500" zoomAndPan="magnify" viewBox="0 0 375 374.999991" height="500" preserveAspectRatio="xMidYMid meet" version="1.0"><defs><clipPath id="def15dd9ed"><path d="M 37.5 37.5 L 337.5 37.5 L 337.5 337.5 L 37.5 337.5 Z M 37.5 37.5 " clip-rule="nonzero"/></clipPath></defs><g clip-path="url(#def15dd9ed)"><path fill="#0080e6" d="M 37.5 37.5 L 37.5 337.488281 L 337.488281 337.488281 L 337.488281 37.5 Z M 309.0625 64.59375 L 264.578125 64.59375 L 285.917969 38.636719 L 335.984375 38.636719 Z M 336.324219 286.335938 L 309.386719 285.132812 L 309.386719 240.941406 L 336.351562 236.617188 Z M 308.222656 285.09375 L 281.261719 283.894531 L 281.261719 245.449219 L 308.222656 241.128906 Z M 307.5 329.351562 L 281.261719 322.816406 L 281.261719 284.371094 L 308.222656 285.570312 L 308.222656 329.351562 Z M 279.453125 322.351562 L 253.183594 315.804688 L 253.183594 283.128906 L 280.152344 284.328125 L 280.152344 322.351562 Z M 185.277344 119.90625 L 169.523438 145.863281 L 142.414062 145.863281 L 152.582031 119.90625 Z M 153.023438 118.769531 L 163.191406 92.8125 L 201.714844 92.8125 L 185.964844 118.769531 Z M 251.324219 315.355469 L 225.082031 308.816406 L 225.082031 281.882812 L 252.050781 283.078125 L 252.050781 315.355469 Z M 223.226562 308.351562 L 196.984375 301.820312 L 196.984375 280.640625 L 223.945312 281.832031 L 223.945312 308.351562 Z M 67.839844 302.492188 L 88.855469 302.492188 L 88.476562 308.351562 L 62.824219 308.351562 Z M 195.121094 301.355469 L 168.882812 294.816406 L 168.882812 279.398438 L 195.847656 280.589844 L 195.847656 301.355469 Z M 167.023438 294.355469 L 140.777344 287.820312 L 140.777344 278.164062 L 167.746094 279.355469 L 167.746094 294.367188 Z M 80.558594 287.355469 L 80.558594 228.285156 L 139.625 228.285156 L 139.625 287.355469 Z M 110.527344 288.488281 L 119.417969 294.355469 L 105.027344 294.355469 L 100.773438 288.488281 Z M 111.398438 288.488281 L 120.859375 288.488281 L 134.621094 294.355469 L 120.285156 294.355469 Z M 122.082031 288.488281 L 131.167969 288.488281 L 149.828125 294.355469 L 135.855469 294.355469 Z M 132.78125 288.488281 L 140.777344 288.488281 L 140.777344 288.3125 L 165.042969 294.355469 L 151.410156 294.355469 Z M 140.777344 277.671875 L 140.777344 268.015625 L 167.746094 263.691406 L 167.746094 278.886719 Z M 140.777344 267.515625 L 140.777344 257.871094 L 167.746094 248.023438 L 167.746094 263.199219 Z M 140.777344 257.347656 L 140.777344 247.726562 L 167.746094 232.496094 L 167.746094 247.5 Z M 140.777344 247.175781 L 140.777344 237.605469 L 167.746094 216.976562 L 167.746094 231.9375 Z M 140.777344 237.003906 L 140.777344 227.484375 L 167.746094 201.488281 L 167.746094 216.410156 Z M 140.460938 227.132812 L 130.953125 227.132812 L 152.292969 201.175781 L 167.382812 201.175781 Z M 130.335938 227.132812 L 120.765625 227.132812 L 136.511719 201.175781 L 151.660156 201.175781 Z M 120.203125 227.132812 L 110.582031 227.132812 L 120.746094 201.175781 L 135.957031 201.175781 Z M 110.070312 227.132812 L 100.414062 227.132812 L 105.277344 201.175781 L 120.230469 201.175781 Z M 99.925781 227.132812 L 90.269531 227.132812 L 89.839844 201.175781 L 104.808594 201.175781 Z M 89.777344 227.132812 L 80.097656 227.132812 L 74.554688 202.074219 L 74.554688 201.175781 L 89.320312 201.175781 Z M 79.621094 227.132812 L 79.421875 227.132812 L 79.421875 235.152344 L 74.566406 219.878906 L 74.566406 204.289062 Z M 79.421875 236.738281 L 79.421875 246.277344 L 74.566406 237.679688 L 74.566406 221.464844 Z M 79.421875 247.253906 L 79.421875 257.332031 L 74.566406 255.402344 L 74.566406 238.652344 Z M 79.421875 257.84375 L 79.421875 288.222656 L 74.566406 293.902344 L 74.566406 255.917969 Z M 79.820312 288.511719 L 89.753906 288.511719 L 89.371094 294.378906 L 74.796875 294.378906 Z M 90.230469 288.511719 L 100.179688 288.511719 L 104.433594 294.378906 L 89.847656 294.378906 Z M 105.257812 295.515625 L 109.511719 301.378906 L 89.390625 301.378906 L 89.753906 295.492188 Z M 105.828125 295.515625 L 121.117188 295.515625 L 130.003906 301.378906 L 110.101562 301.378906 Z M 121.984375 295.515625 L 137.28125 295.515625 L 151.09375 301.355469 L 130.894531 301.355469 Z M 138.5 295.515625 L 153.433594 295.515625 L 172.109375 301.355469 L 152.296875 301.355469 Z M 155.03125 295.515625 L 168.859375 295.515625 L 168.859375 295.335938 L 193.121094 301.355469 L 173.703125 301.355469 Z M 168.859375 278.941406 L 168.859375 263.488281 L 195.828125 259.167969 L 195.828125 280.113281 Z M 168.859375 263.039062 L 168.859375 247.597656 L 195.828125 237.746094 L 195.828125 258.675781 Z M 168.859375 247.136719 L 168.859375 231.859375 L 195.828125 216.625 L 195.828125 237.238281 Z M 168.859375 231.359375 L 168.859375 216.121094 L 195.847656 195.507812 L 195.847656 216.074219 Z M 168.859375 215.570312 L 168.859375 200.394531 L 195.847656 174.378906 L 195.847656 194.890625 Z M 168.535156 200.09375 L 153.199219 200.09375 L 174.539062 174.136719 L 195.457031 174.136719 Z M 152.582031 200.09375 L 137.199219 200.09375 L 152.957031 174.136719 L 173.941406 174.136719 Z M 136.621094 200.09375 L 121.191406 200.09375 L 131.355469 174.136719 L 152.371094 174.136719 Z M 120.65625 200.09375 L 105.492188 200.09375 L 110.351562 174.136719 L 130.84375 174.136719 Z M 104.980469 200.09375 L 89.796875 200.09375 L 89.359375 174.136719 L 109.871094 174.136719 Z M 89.296875 200.09375 L 74.117188 200.09375 L 68.578125 175.03125 L 68.578125 174.136719 L 88.882812 174.136719 Z M 73.605469 200.09375 L 73.40625 200.09375 L 73.40625 216.359375 L 68.554688 201.082031 L 68.554688 177.21875 Z M 73.40625 217.9375 L 73.40625 235.714844 L 68.554688 227.117188 L 68.554688 202.609375 Z M 73.40625 236.679688 L 73.40625 254.992188 L 68.554688 253.058594 L 68.554688 228.070312 Z M 73.40625 255.503906 L 73.40625 295.261719 L 68.554688 300.941406 L 68.554688 253.539062 Z M 73.804688 295.53125 L 89.292969 295.53125 L 88.914062 301.394531 L 68.8125 301.394531 Z M 89.292969 302.53125 L 110.308594 302.53125 L 114.5625 308.390625 L 88.933594 308.390625 Z M 110.902344 302.53125 L 131.726562 302.53125 L 140.613281 308.390625 L 115.179688 308.390625 Z M 132.59375 302.53125 L 153.722656 302.53125 L 167.496094 308.390625 L 141.484375 308.390625 Z M 154.945312 302.53125 L 175.703125 302.53125 L 194.359375 308.390625 L 168.734375 308.390625 Z M 177.300781 302.53125 L 196.984375 302.53125 L 196.984375 302.347656 L 221.25 308.390625 L 195.960938 308.390625 Z M 196.960938 280.203125 L 196.960938 259.007812 L 223.921875 254.683594 L 223.921875 281.378906 Z M 196.960938 258.535156 L 196.960938 237.332031 L 223.921875 227.480469 L 223.921875 254.171875 Z M 196.960938 236.863281 L 196.960938 215.984375 L 223.921875 200.75 L 223.921875 226.972656 Z M 196.960938 215.472656 L 196.960938 194.640625 L 223.921875 174.027344 L 223.921875 200.199219 Z M 196.960938 194.078125 L 196.960938 173.300781 L 223.921875 147.3125 L 223.921875 173.4375 Z M 196.636719 172.988281 L 175.515625 172.988281 L 196.855469 147.039062 L 223.605469 147.039062 Z M 174.851562 172.988281 L 153.644531 172.988281 L 169.398438 147.039062 L 196.210938 147.039062 Z M 153.0625 172.988281 L 131.78125 172.988281 L 141.949219 147.039062 L 168.820312 147.039062 Z M 131.265625 172.988281 L 110.570312 172.988281 L 115.429688 147.039062 L 141.4375 147.039062 Z M 110.058594 172.988281 L 89.34375 172.988281 L 88.90625 147.039062 L 114.949219 147.039062 Z M 88.84375 172.988281 L 68.128906 172.988281 L 62.59375 147.929688 L 62.59375 147.039062 L 88.429688 147.039062 Z M 67.621094 172.988281 L 67.421875 172.988281 L 67.421875 197.496094 L 62.570312 182.21875 L 62.570312 150.105469 Z M 67.421875 199.074219 L 67.421875 225.089844 L 62.570312 216.488281 L 62.570312 183.757812 Z M 67.421875 226.066406 L 67.421875 252.613281 L 62.570312 250.6875 L 62.570312 217.460938 Z M 67.421875 253.128906 L 67.421875 302.257812 L 62.570312 307.9375 L 62.570312 251.15625 Z M 61.457031 309.222656 L 56.601562 314.902344 L 56.601562 248.785156 L 61.457031 250.710938 Z M 61.847656 309.488281 L 88.382812 309.488281 L 88.003906 315.355469 L 56.8125 315.355469 Z M 88.859375 309.488281 L 115.414062 309.488281 L 119.667969 315.355469 L 88.480469 315.355469 Z M 116.003906 309.488281 L 142.359375 309.488281 L 151.253906 315.355469 L 120.257812 315.355469 Z M 143.226562 309.488281 L 170.183594 309.488281 L 183.957031 315.355469 L 152.117188 315.355469 Z M 171.402344 309.488281 L 198 309.488281 L 216.652344 315.355469 L 185.171875 315.355469 Z M 199.59375 309.488281 L 225.082031 309.488281 L 225.082031 309.3125 L 249.351562 315.355469 L 218.25 315.355469 Z M 225.082031 281.40625 L 225.082031 254.464844 L 252.050781 250.140625 L 252.050781 282.59375 Z M 225.082031 253.984375 L 225.082031 227.066406 L 252.050781 217.214844 L 252.050781 249.660156 Z M 225.082031 226.558594 L 225.082031 200.109375 L 252.050781 184.875 L 252.050781 216.683594 Z M 225.082031 199.558594 L 225.082031 173.160156 L 252.050781 152.546875 L 252.050781 184.351562 Z M 225.082031 172.558594 L 225.082031 146.214844 L 252.050781 120.21875 L 252.050781 151.945312 Z M 224.757812 145.863281 L 197.761719 145.863281 L 219.101562 119.90625 L 251.679688 119.90625 Z M 197.144531 145.863281 L 170.085938 145.863281 L 185.835938 119.90625 L 218.484375 119.90625 Z M 141.898438 145.863281 L 115.648438 145.863281 L 120.507812 119.90625 L 152.066406 119.90625 Z M 115.15625 145.863281 L 88.890625 145.863281 L 88.453125 119.90625 L 120.027344 119.90625 Z M 88.414062 145.863281 L 62.144531 145.863281 L 56.601562 120.804688 L 56.601562 119.90625 L 87.976562 119.90625 Z M 61.648438 145.863281 L 61.457031 145.863281 L 61.457031 178.601562 L 56.601562 163.320312 L 56.601562 122.996094 Z M 61.457031 180.179688 L 61.457031 214.433594 L 56.601562 205.832031 L 56.601562 164.902344 Z M 61.457031 215.394531 L 61.457031 250.175781 L 56.601562 248.25 L 56.601562 206.789062 Z M 55.464844 247.8125 L 50.613281 245.886719 L 50.613281 196.191406 L 55.464844 204.789062 Z M 55.464844 248.328125 L 55.464844 316.21875 L 50.613281 321.898438 L 50.613281 246.402344 Z M 55.863281 316.484375 L 87.929688 316.484375 L 87.542969 322.347656 L 50.847656 322.347656 Z M 88.40625 316.484375 L 120.492188 316.484375 L 124.746094 322.347656 L 88.050781 322.347656 Z M 121.082031 316.484375 L 152.972656 316.484375 L 161.882812 322.351562 L 125.335938 322.351562 Z M 153.835938 316.484375 L 186.625 316.484375 L 200.398438 322.347656 L 162.730469 322.347656 Z M 187.847656 316.484375 L 220.273438 316.484375 L 238.929688 322.347656 L 201.640625 322.347656 Z M 221.863281 316.484375 L 253.183594 316.484375 L 253.183594 316.304688 L 277.449219 322.347656 L 240.53125 322.347656 Z M 253.183594 282.644531 L 253.183594 249.960938 L 280.152344 245.636719 L 280.152344 283.84375 Z M 253.183594 249.472656 L 253.183594 216.800781 L 280.152344 206.953125 L 280.152344 245.148438 Z M 253.183594 216.289062 L 253.183594 184.234375 L 280.152344 169.007812 L 280.152344 206.441406 Z M 253.183594 183.683594 L 253.183594 151.660156 L 280.152344 131.050781 L 280.152344 168.4375 Z M 253.183594 151.070312 L 253.183594 119.121094 L 280.152344 93.125 L 280.152344 130.464844 Z M 252.863281 118.765625 L 220.03125 118.765625 L 241.398438 92.8125 L 279.8125 92.8125 Z M 219.414062 118.765625 L 186.527344 118.765625 L 202.277344 92.808594 L 240.753906 92.808594 Z M 202.941406 91.671875 L 218.722656 65.726562 L 263.023438 65.726562 L 241.691406 91.679688 Z M 202.375 91.671875 L 163.632812 91.671875 L 173.8125 65.726562 L 218.171875 65.726562 Z M 163.089844 91.671875 L 125.800781 91.671875 L 130.648438 65.726562 L 173.242188 65.726562 Z M 162.640625 92.808594 L 152.480469 118.765625 L 120.671875 118.765625 L 125.539062 92.808594 Z M 120.203125 118.765625 L 88.394531 118.765625 L 87.957031 92.808594 L 125.0625 92.808594 Z M 87.925781 118.765625 L 56.117188 118.765625 L 50.613281 93.730469 L 50.613281 92.8125 L 87.53125 92.8125 Z M 55.628906 118.765625 L 55.429688 118.765625 L 55.429688 159.742188 L 50.582031 144.464844 L 50.582031 95.925781 Z M 55.464844 161.316406 L 55.464844 203.804688 L 50.613281 195.207031 L 50.613281 146.050781 Z M 49.476562 193.203125 L 44.621094 184.601562 L 44.621094 127.199219 L 49.476562 142.472656 Z M 49.476562 194.171875 L 49.476562 245.4375 L 44.621094 243.507812 L 44.621094 185.574219 Z M 49.476562 245.949219 L 49.476562 323.191406 L 44.621094 328.871094 L 44.621094 244.023438 Z M 49.875 323.488281 L 87.480469 323.488281 L 87.101562 329.351562 L 44.882812 329.351562 Z M 87.929688 323.488281 L 125.546875 323.488281 L 129.800781 329.351562 L 87.570312 329.351562 Z M 126.136719 323.488281 L 163.589844 323.488281 L 172.476562 329.351562 L 130.449219 329.351562 Z M 164.429688 323.488281 L 203.050781 323.488281 L 216.824219 329.351562 L 173.339844 329.351562 Z M 204.265625 323.488281 L 242.535156 323.488281 L 261.195312 329.351562 L 218.0625 329.351562 Z M 244.109375 323.488281 L 281.265625 323.488281 L 281.265625 323.304688 L 305.582031 329.351562 L 262.789062 329.351562 Z M 281.265625 244.96875 L 281.265625 206.539062 L 308.226562 196.691406 L 308.226562 240.640625 Z M 281.265625 206.027344 L 281.265625 168.363281 L 308.226562 153.132812 L 308.226562 196.179688 Z M 281.265625 167.8125 L 281.265625 130.199219 L 308.226562 109.582031 L 308.226562 152.582031 Z M 281.265625 129.597656 L 281.265625 92.023438 L 308.25 66.039062 L 308.25 108.980469 Z M 280.941406 91.679688 L 242.308594 91.679688 L 263.640625 65.726562 L 307.886719 65.726562 Z M 263.960938 64.59375 L 219.410156 64.59375 L 235.152344 38.636719 L 285.292969 38.636719 Z M 218.851562 64.59375 L 174.242188 64.59375 L 184.410156 38.636719 L 234.585938 38.636719 Z M 173.734375 64.59375 L 130.878906 64.59375 L 135.757812 38.636719 L 183.910156 38.636719 Z M 130.390625 64.59375 L 87.519531 64.59375 L 87.089844 38.636719 L 135.257812 38.636719 Z M 130.179688 65.726562 L 125.3125 91.679688 L 87.980469 91.679688 L 87.542969 65.726562 Z M 87.480469 91.679688 L 50.164062 91.679688 L 44.621094 66.621094 L 44.621094 65.726562 L 87.066406 65.726562 Z M 49.660156 91.679688 L 49.460938 91.679688 L 49.460938 140.871094 L 44.605469 125.597656 L 44.605469 68.800781 Z M 43.488281 64.59375 L 43.488281 122.042969 L 38.636719 106.792969 L 38.636719 41.742188 L 43.683594 64.59375 Z M 43.488281 123.621094 L 43.488281 182.585938 L 38.636719 173.980469 L 38.636719 108.34375 Z M 43.488281 183.558594 L 43.488281 243.058594 L 38.636719 241.132812 L 38.636719 174.949219 Z M 38.636719 241.644531 L 43.488281 243.574219 L 43.488281 330.21875 L 38.636719 335.886719 Z M 43.882812 330.484375 L 87.015625 330.484375 L 86.636719 336.351562 L 38.867188 336.351562 Z M 87.5 330.484375 L 130.664062 330.484375 L 134.917969 336.351562 L 87.113281 336.351562 Z M 131.230469 330.484375 L 174.1875 330.484375 L 183.074219 336.351562 L 135.492188 336.351562 Z M 175.054688 330.484375 L 219.503906 330.484375 L 233.277344 336.351562 L 183.949219 336.351562 Z M 220.71875 330.484375 L 264.804688 330.484375 L 283.464844 336.351562 L 234.5 336.351562 Z M 266.402344 330.484375 L 309.386719 330.484375 L 309.386719 330.308594 L 333.648438 336.351562 L 285.058594 336.351562 Z M 309.378906 329.816406 L 309.378906 285.621094 L 336.347656 286.816406 L 336.347656 336.351562 L 335.625 336.351562 Z M 336.347656 236.128906 L 309.378906 240.457031 L 309.378906 196.273438 L 336.347656 186.425781 Z M 336.347656 185.914062 L 309.386719 195.765625 L 309.386719 152.492188 L 336.351562 137.257812 Z M 336.347656 136.710938 L 309.386719 151.941406 L 309.386719 108.71875 L 336.351562 88.101562 Z M 336.347656 87.5 L 309.378906 108.117188 L 309.378906 64.949219 L 336.351562 38.949219 Z M 86.605469 38.636719 L 87.042969 64.59375 L 44.171875 64.59375 L 38.636719 39.527344 L 38.636719 38.636719 Z M 86.605469 38.636719 " fill-opacity="1" fill-rule="nonzero"/></g></svg>