<svg xmlns="http://www.w3.org/2000/svg" xmlns:xlink="http://www.w3.org/1999/xlink" width="500" zoomAndPan="magnify" viewBox="0 0 375 374.999991" height="500" preserveAspectRatio="xMidYMid meet" version="1.0"><defs><clipPath id="98d967895c"><path d="M 25.71875 79 L 306 79 L 306 323 L 25.71875 323 Z M 25.71875 79 " clip-rule="nonzero"/></clipPath><clipPath id="d3ad4ad59f"><path d="M 25.71875 155 L 72 155 L 72 208 L 25.71875 208 Z M 25.71875 155 " clip-rule="nonzero"/></clipPath><clipPath id="2a460c9239"><path d="M 315 44.691406 L 348.96875 44.691406 L 348.96875 79 L 315 79 Z M 315 44.691406 " clip-rule="nonzero"/></clipPath><clipPath id="8e01065e6f"><path d="M 208 281 L 259 281 L 259 330.4375 L 208 330.4375 Z M 208 281 " clip-rule="nonzero"/></clipPath></defs><path fill="#d4e7ff" d="M 322.492188 207.105469 C 319.191406 278.578125 255.671875 298.925781 176.550781 300.449219 C 55.90625 302.78125 41.863281 264.414062 41.863281 192.867188 C 41.863281 121.320312 68.164062 47.445312 137.902344 52.890625 C 171.03125 55.476562 208.636719 110.445312 236.792969 128.683594 C 275.691406 153.882812 324.980469 153.414062 322.492188 207.105469 Z M 322.492188 207.105469 " fill-opacity="1" fill-rule="nonzero"/><g clip-path="url(#98d967895c)"><path stroke-linecap="butt" transform="matrix(0.526466, 0, 0, 0.5272, 25.718305, 44.693282)" fill="none" stroke-linejoin="miter" d="M 27.142333 364.84418 C 27.142333 364.84418 74.881077 344.016272 96.813892 276.145895 C 118.768966 208.260698 158.538887 151.104356 233.931082 147.27368 C 309.308438 143.428186 390.836776 148.155403 417.78535 107.699915 C 444.719084 67.244428 387.149155 66.325659 386.340401 137.300588 C 385.531647 208.275517 509.590057 338.444381 516.074929 439.523824 C 522.5598 540.595857 438.798114 520.53853 334.735961 479.905217 C 230.666387 439.279313 122.033661 519.671627 54.320919 489.604161 C -13.391824 459.521875 -10.453598 395.208024 27.142333 364.84418 Z M 27.142333 364.84418 " stroke="#4570b4" stroke-width="1" stroke-opacity="0.4196" stroke-miterlimit="10"/></g><path fill="#4570b4" d="M 45.34375 195.566406 C 53.300781 195.566406 59.753906 189.109375 59.753906 181.140625 C 59.753906 173.175781 53.300781 166.714844 45.34375 166.714844 C 37.382812 166.714844 30.933594 173.175781 30.933594 181.140625 C 30.933594 189.109375 37.382812 195.566406 45.34375 195.566406 Z M 45.34375 195.566406 " fill-opacity="0.4196" fill-rule="nonzero"/><g clip-path="url(#d3ad4ad59f)"><path stroke-linecap="butt" transform="matrix(0.526466, 0, 0, 0.5272, 25.718305, 44.693282)" fill="none" stroke-linejoin="miter" d="M 61.978112 283.510868 C 75.623053 269.870107 75.623053 247.760369 61.978112 234.119608 C 48.333171 220.486257 26.214862 220.486257 12.569921 234.119608 C -1.0676 247.760369 -1.0676 269.870107 12.569921 283.510868 C 26.214862 297.144219 48.333171 297.144219 61.978112 283.510868 Z M 61.978112 283.510868 " stroke="#4570b4" stroke-width="1" stroke-opacity="0.4196" stroke-miterlimit="10"/></g><path fill="#4570b4" d="M 319.042969 207.105469 C 328.324219 207.105469 335.851562 199.570312 335.851562 190.277344 C 335.851562 180.988281 328.324219 173.453125 319.042969 173.453125 C 309.757812 173.453125 302.234375 180.988281 302.234375 190.277344 C 302.234375 199.570312 309.757812 207.105469 319.042969 207.105469 Z M 319.042969 207.105469 " fill-opacity="0.4196" fill-rule="nonzero"/><path stroke-linecap="butt" transform="matrix(0.526466, 0, 0, 0.5272, 25.718305, 44.693282)" fill="none" stroke-linejoin="miter" d="M 334.179478 190.063138 L 325.565135 203.755764 L 343.914205 203.755764 Z M 334.179478 190.063138 " stroke="#4570b4" stroke-width="1" stroke-opacity="0.4196" stroke-miterlimit="10"/><path fill="#4570b4" d="M 137.667969 77.753906 L 131.605469 87.382812 L 144.511719 87.382812 Z M 137.667969 77.753906 " fill-opacity="0.4196" fill-rule="nonzero"/><path fill="#4570b4" d="M 183.097656 97.210938 C 192.773438 97.210938 200.621094 89.355469 200.621094 79.667969 C 200.621094 69.976562 192.773438 62.125 183.097656 62.125 C 173.417969 62.125 165.570312 69.976562 165.570312 79.667969 C 165.570312 89.355469 173.417969 97.210938 183.097656 97.210938 Z M 183.097656 97.210938 " fill-opacity="0.4196" fill-rule="nonzero"/><path fill="#ffffff" d="M 182.746094 77.5 L 181.757812 75.613281 C 181.125 74.402344 181.59375 72.90625 182.804688 72.273438 C 183.625 71.835938 183.949219 70.820312 183.515625 69.992188 L 182.042969 67.164062 C 181.609375 66.339844 180.59375 66.019531 179.765625 66.453125 L 178.480469 67.125 C 177.269531 67.761719 176.285156 68.75 175.65625 69.960938 L 175.28125 70.6875 C 174.632812 71.933594 174.640625 73.421875 175.289062 74.671875 L 178.046875 79.953125 L 179.882812 83.472656 L 182.640625 88.753906 C 183.289062 90 184.507812 90.855469 185.90625 91.035156 L 186.710938 91.136719 C 188.0625 91.316406 189.4375 91.070312 190.648438 90.433594 L 191.933594 89.761719 C 192.753906 89.328125 193.078125 88.3125 192.652344 87.480469 L 191.179688 84.65625 C 190.746094 83.832031 189.730469 83.511719 188.902344 83.9375 C 187.691406 84.574219 186.195312 84.101562 185.5625 82.890625 L 184.574219 81.003906 Z M 182.746094 77.5 " fill-opacity="1" fill-rule="nonzero"/><path stroke-linecap="butt" transform="matrix(0.526466, 0, 0, 0.5272, 25.718305, 44.693282)" fill="none" stroke-linejoin="miter" d="M 542.429921 441.687377 C 542.429921 445.488415 539.35072 448.585557 535.529543 448.585557 C 531.730625 448.585557 528.636585 445.503234 528.636585 441.687377 C 528.636585 437.871521 531.715786 434.796608 535.529543 434.796608 C 539.35072 434.811426 542.429921 437.88634 542.429921 441.687377 Z M 542.429921 441.687377 " stroke="#4570b4" stroke-width="1" stroke-opacity="0.4196" stroke-miterlimit="10"/><path fill="#ffffff" d="M 94.371094 85.449219 C 98.078125 85.449219 101.082031 82.441406 101.082031 78.730469 C 101.082031 75.023438 98.078125 72.015625 94.371094 72.015625 C 90.667969 72.015625 87.664062 75.023438 87.664062 78.730469 C 87.664062 82.441406 90.667969 85.449219 94.371094 85.449219 Z M 94.371094 85.449219 " fill-opacity="0.4196" fill-rule="nonzero"/><path stroke-linecap="butt" transform="matrix(0.526466, 0, 0, 0.5272, 25.718305, 44.693282)" fill="none" stroke-linejoin="miter" d="M 478.234146 254.280667 C 485.275499 254.280667 490.973876 248.575406 490.973876 241.536448 C 490.973876 234.504899 485.275499 228.799638 478.234146 228.799638 C 471.200212 228.799638 465.494415 234.504899 465.494415 241.536448 C 465.494415 248.575406 471.200212 254.280667 478.234146 254.280667 Z M 478.234146 254.280667 " stroke="#4570b4" stroke-width="1" stroke-opacity="0.4196" stroke-miterlimit="10"/><path fill="#4570b4" d="M 66.296875 216.996094 C 69.90625 216.996094 72.832031 214.066406 72.832031 210.453125 C 72.832031 206.839844 69.90625 203.910156 66.296875 203.910156 C 62.6875 203.910156 59.761719 206.839844 59.761719 210.453125 C 59.761719 214.066406 62.6875 216.996094 66.296875 216.996094 Z M 66.296875 216.996094 " fill-opacity="0.4196" fill-rule="nonzero"/><path stroke-linecap="butt" transform="matrix(0.526466, 0, 0, 0.5272, 25.718305, 44.693282)" fill="none" stroke-linejoin="miter" d="M 557.158148 298.159311 C 569.319136 298.159311 579.179999 288.304769 579.179999 276.145895 C 579.179999 263.99443 569.319136 254.132478 557.158148 254.132478 C 544.997159 254.132478 535.136296 263.99443 535.136296 276.145895 C 535.136296 288.304769 544.997159 298.159311 557.158148 298.159311 Z M 557.158148 298.159311 " stroke="#ffffff" stroke-width="1" stroke-opacity="0.4196" stroke-miterlimit="10"/><path fill="#4570b4" d="M 309.1875 80.339844 L 228.835938 80.339844 C 225.402344 80.339844 222.621094 83.128906 222.621094 86.5625 L 222.621094 135.144531 C 222.621094 138.585938 225.410156 141.367188 228.835938 141.367188 L 280.082031 141.367188 L 280.082031 153.617188 C 280.082031 155.664062 282.472656 156.777344 284.042969 155.460938 L 300.769531 141.367188 L 309.1875 141.367188 C 312.625 141.367188 315.402344 138.578125 315.402344 135.144531 L 315.402344 86.570312 C 315.402344 83.128906 312.625 80.339844 309.1875 80.339844 Z M 309.1875 80.339844 " fill-opacity="0.4196" fill-rule="nonzero"/><path fill="#68a8de" d="M 329.539062 86.40625 C 329.539062 93.664062 327.453125 100.433594 323.859375 106.117188 C 323.292969 107.027344 322.679688 107.917969 322.03125 108.769531 C 315.464844 117.398438 305.191406 122.957031 293.648438 122.957031 C 287.726562 122.957031 282.136719 121.496094 277.214844 118.902344 C 265.660156 112.832031 257.761719 100.554688 257.761719 86.40625 C 257.761719 84.75 257.867188 83.121094 258.082031 81.519531 C 260.421875 63.640625 275.460938 49.84375 293.648438 49.84375 C 313.46875 49.84375 329.539062 66.214844 329.539062 86.40625 Z M 329.539062 86.40625 " fill-opacity="1" fill-rule="nonzero"/><path fill="#c6606c" d="M 322.03125 108.761719 C 315.464844 117.390625 305.191406 122.949219 293.648438 122.949219 C 287.726562 122.949219 282.136719 121.492188 277.214844 118.894531 C 277.886719 117.214844 279.949219 112.75 283.601562 110.25 C 288.160156 107.125 302.007812 105.25 311.617188 106.070312 C 317.285156 106.550781 320.414062 107.8125 322.03125 108.761719 Z M 322.03125 108.761719 " fill-opacity="1" fill-rule="nonzero"/><path fill="#ffffff" d="M 277.492188 67.859375 L 277.863281 85.710938 C 277.863281 85.710938 278.433594 103.949219 293.253906 103.625 C 308.082031 103.304688 311.210938 80.773438 311.210938 80.773438 L 308.882812 67.105469 C 308.882812 67.105469 291.550781 55.527344 277.492188 67.859375 Z M 277.492188 67.859375 " fill-opacity="1" fill-rule="nonzero"/><path fill="#ffffff" d="M 293.359375 99.332031 C 293.359375 99.332031 294.457031 106.234375 292.796875 108.492188 C 291.140625 110.75 296.097656 118.589844 296.097656 118.589844 L 307.582031 108.046875 C 307.582031 108.046875 306.820312 100.3125 307.027344 93.546875 Z M 293.359375 99.332031 " fill-opacity="1" fill-rule="nonzero"/><path fill="#00496a" d="M 277.574219 71.957031 C 277.574219 71.957031 281.839844 73.316406 286.402344 72.914062 C 290.96875 72.511719 292.566406 70.671875 292.566406 70.671875 C 292.566406 70.671875 294.089844 71.3125 296.570312 71.3125 C 299.050781 71.3125 300.898438 70.109375 300.898438 70.109375 C 300.898438 70.109375 299.214844 72.996094 299.933594 76.683594 C 300.648438 80.371094 303.054688 81.328125 303.054688 81.328125 C 303.054688 81.328125 304.578125 77.640625 307.214844 77.640625 C 309.851562 77.640625 310.816406 80.445312 310.136719 84.132812 C 309.457031 87.816406 305.214844 88.699219 305.214844 88.699219 L 307.023438 93.554688 C 307.023438 93.554688 313.859375 86.21875 314.65625 78.125 C 315.457031 70.035156 311.378906 67.628906 311.378906 67.628906 C 311.378906 67.628906 311.722656 61.617188 303.707031 59.535156 C 295.691406 57.449219 290.410156 57.613281 284.402344 61.0625 C 284.402344 61.0625 279.359375 57.21875 275.117188 59.535156 C 270.875 61.863281 272.074219 66.828125 274.152344 68.105469 C 274.152344 68.105469 270.074219 69.144531 270.949219 74.191406 C 271.828125 79.242188 277.707031 78.84375 277.707031 78.84375 Z M 277.574219 71.957031 " fill-opacity="1" fill-rule="nonzero"/><path fill="#d9d9d9" d="M 293.253906 103.625 C 293.253906 103.625 304.035156 100.769531 305.09375 93.554688 C 305.09375 93.554688 307.769531 104.015625 293.253906 107.566406 C 293.253906 107.566406 293.6875 104.457031 293.253906 103.625 Z M 293.253906 103.625 " fill-opacity="1" fill-rule="nonzero"/><g clip-path="url(#2a460c9239)"><path fill="#4570b4" d="M 348.742188 64.199219 C 350.234375 55.042969 344.03125 46.410156 334.886719 44.914062 C 325.742188 43.417969 317.117188 49.625 315.621094 58.78125 C 314.128906 67.933594 320.332031 76.566406 329.476562 78.066406 C 338.621094 79.5625 347.246094 73.351562 348.742188 64.199219 Z M 348.742188 64.199219 " fill-opacity="0.4196" fill-rule="nonzero"/></g><path fill="#ffffff" d="M 330.292969 66.011719 L 330.234375 65.234375 C 330.054688 63.613281 330.59375 61.839844 332.09375 60.039062 C 333.445312 58.445312 334.191406 57.269531 334.191406 55.917969 C 334.191406 54.382812 333.230469 53.359375 331.339844 53.332031 C 330.253906 53.332031 329.058594 53.6875 328.304688 54.265625 L 327.589844 52.371094 C 328.582031 51.65625 330.292969 51.167969 331.882812 51.167969 C 335.335938 51.167969 336.898438 53.300781 336.898438 55.589844 C 336.898438 57.628906 335.753906 59.101562 334.3125 60.816406 C 332.988281 62.378906 332.511719 63.703125 332.601562 65.234375 L 332.632812 66.011719 Z M 329.636719 70.222656 C 329.636719 69.109375 330.382812 68.332031 331.4375 68.332031 C 332.488281 68.332031 333.207031 69.109375 333.207031 70.222656 C 333.207031 71.277344 332.519531 72.085938 331.40625 72.085938 C 330.351562 72.085938 329.636719 71.277344 329.636719 70.222656 Z M 329.636719 70.222656 " fill-opacity="1" fill-rule="nonzero"/><path fill="#a6d6f7" d="M 303.652344 258.976562 C 303.597656 259.148438 303.53125 259.292969 303.449219 259.402344 C 302.03125 261.460938 300.535156 263.457031 298.960938 265.386719 L 298.953125 265.386719 C 247.675781 328.460938 115.816406 328.460938 115.816406 328.460938 L 115.816406 253.183594 L 303.449219 253.183594 C 303.449219 253.183594 304.175781 257.28125 303.652344 258.976562 Z M 303.652344 258.976562 " fill-opacity="1" fill-rule="nonzero"/><path fill="#8cc6e5" d="M 303.652344 258.976562 C 303.597656 259.148438 303.53125 259.292969 303.449219 259.402344 C 302.03125 261.460938 300.535156 263.457031 298.960938 265.386719 L 298.953125 265.386719 L 115.816406 286.25 L 115.816406 258.976562 Z M 303.652344 258.976562 " fill-opacity="1" fill-rule="nonzero"/><path fill="#ff6a76" d="M 201.941406 199.933594 L 192.867188 209.5625 C 192.867188 209.5625 191.007812 207.648438 188.78125 204.71875 C 187.71875 203.3125 186.578125 201.675781 185.523438 199.902344 C 184.140625 197.585938 182.902344 195.042969 182.191406 192.492188 C 179.800781 183.929688 180.78125 165.871094 180.78125 165.871094 C 180.78125 165.871094 184.648438 166.289062 185.972656 167.761719 C 193.417969 176.0625 201.941406 199.933594 201.941406 199.933594 Z M 201.941406 199.933594 " fill-opacity="1" fill-rule="nonzero"/><path fill="#4570b4" d="M 167.824219 231.390625 L 102.832031 231.390625 L 96.894531 181.363281 C 96.214844 175.636719 100.203125 170.425781 105.8125 169.691406 L 109.722656 169.183594 L 159.382812 162.722656 Z M 167.824219 231.390625 " fill-opacity="1" fill-rule="nonzero"/><path fill="#ff6a76" d="M 151.957031 164.382812 C 151.957031 164.382812 130.808594 171.1875 129.660156 172.945312 C 128.515625 174.695312 138.445312 205.71875 138.445312 205.71875 L 136.53125 231.398438 L 179.597656 231.398438 L 181.773438 206.894531 C 181.773438 206.894531 186.382812 201.832031 186.664062 193.464844 C 186.949219 185.097656 180.78125 165.871094 180.78125 165.871094 L 165.757812 163.898438 Z M 151.957031 164.382812 " fill-opacity="1" fill-rule="nonzero"/><path fill="#00496a" d="M 158.007812 116.1875 C 158.007812 116.1875 143.269531 109.839844 132.804688 124.644531 C 122.339844 139.453125 133.179688 162.722656 133.179688 162.722656 C 133.179688 162.722656 159.882812 159.230469 167.273438 158.519531 C 174.660156 157.808594 176.164062 157.808594 176.164062 157.808594 C 176.164062 157.808594 179.972656 134.425781 171.84375 125.828125 C 163.710938 117.234375 158.007812 116.1875 158.007812 116.1875 Z M 158.007812 116.1875 " fill-opacity="1" fill-rule="nonzero"/><path fill="#ffffff" d="M 163.492188 173.933594 L 151.046875 165.390625 C 151.046875 165.390625 152.070312 162.125 151.816406 158.855469 C 151.757812 158.132812 151.636719 157.40625 151.429688 156.71875 C 151.324219 156.375 151.195312 156.039062 151.046875 155.707031 L 163.492188 155.089844 C 163.492188 155.089844 163.574219 156.097656 163.804688 157.398438 C 163.992188 158.417969 164.269531 159.613281 164.6875 160.652344 C 164.988281 161.421875 165.359375 162.101562 165.824219 162.574219 C 167.726562 164.511719 163.492188 173.933594 163.492188 173.933594 Z M 163.492188 173.933594 " fill-opacity="1" fill-rule="nonzero"/><path fill="#d9d9d9" d="M 164.6875 160.652344 C 163.089844 160.703125 156.222656 160.808594 151.816406 158.855469 C 151.757812 158.132812 151.636719 157.40625 151.429688 156.71875 C 151.429688 156.71875 159.816406 157.742188 163.804688 157.398438 C 163.992188 158.414062 164.269531 159.613281 164.6875 160.652344 Z M 164.6875 160.652344 " fill-opacity="1" fill-rule="nonzero"/><path fill="#ffffff" d="M 170.5 121.804688 L 172.578125 138.972656 C 172.578125 138.972656 175.296875 156.664062 161.035156 158.378906 C 146.773438 160.097656 141.980469 143.59375 141.980469 143.59375 L 140.289062 125.371094 C 140.28125 125.371094 155.328125 111.902344 170.5 121.804688 Z M 170.5 121.804688 " fill-opacity="1" fill-rule="nonzero"/><path fill="#00496a" d="M 163.992188 123.136719 C 163.992188 123.136719 162.125 127.726562 155.992188 130.988281 C 150.554688 133.875 145.453125 134.671875 145.453125 134.671875 C 145.453125 134.671875 144.628906 139.511719 141.882812 142.539062 C 141.882812 142.539062 137.117188 133.492188 139.066406 125.699219 C 141.007812 117.910156 151.054688 114.148438 159.878906 114.941406 C 168.691406 115.730469 171.867188 118.96875 173.039062 124.113281 C 174.214844 129.261719 172.257812 136.214844 172.257812 136.214844 C 172.257812 136.214844 170.367188 124.742188 163.992188 123.136719 Z M 163.992188 123.136719 " fill-opacity="1" fill-rule="nonzero"/><path fill="#68a8de" d="M 140.28125 138.757812 C 140.28125 138.757812 138.585938 125.699219 148.640625 118.769531 C 155.191406 114.253906 163.441406 115.457031 163.441406 115.457031 C 163.441406 115.457031 158.242188 111.539062 148 116.0625 C 137.757812 120.585938 137.234375 130.816406 138.273438 138.757812 Z M 140.28125 138.757812 " fill-opacity="1" fill-rule="nonzero"/><path fill="#375c93" d="M 117.65625 231.390625 L 102.824219 231.390625 L 96.886719 181.363281 C 96.207031 175.636719 100.195312 170.425781 105.808594 169.691406 L 109.714844 169.183594 Z M 117.65625 231.390625 " fill-opacity="1" fill-rule="nonzero"/><path fill="#375c93" d="M 154.199219 155.238281 C 147.394531 155.238281 142.34375 150.496094 142.121094 150.28125 L 143.03125 149.285156 C 143.085938 149.335938 148.605469 154.496094 155.507812 153.808594 L 155.636719 155.164062 C 155.148438 155.214844 154.671875 155.238281 154.199219 155.238281 Z M 154.199219 155.238281 " fill-opacity="1" fill-rule="nonzero"/><path fill="#68a8de" d="M 322.796875 259.402344 L 118.878906 259.402344 C 113.425781 259.402344 108.226562 257.152344 104.605469 253.210938 L 93.40625 241.054688 C 89.058594 236.335938 92.515625 228.863281 99.046875 228.863281 L 298.117188 228.863281 C 304.996094 228.863281 311.609375 231.453125 316.554688 236.082031 L 328.050781 246.824219 C 332.941406 251.394531 329.597656 259.402344 322.796875 259.402344 Z M 322.796875 259.402344 " fill-opacity="1" fill-rule="nonzero"/><path fill="#ffffff" d="M 229.808594 168.742188 C 229.441406 168.945312 228.867188 169.28125 228.238281 169.65625 L 228.121094 169.460938 C 229.988281 168.273438 232.742188 166.410156 232.558594 165.960938 C 232.273438 165.28125 230.875 165.640625 229.835938 166.199219 C 229.238281 166.527344 228.148438 167.179688 227.097656 167.816406 L 227.019531 167.695312 C 228.875 166.523438 231.960938 164.480469 231.757812 164 C 231.472656 163.320312 230.078125 163.679688 229.039062 164.242188 C 228.382812 164.601562 227.132812 165.347656 225.992188 166.035156 L 225.902344 165.894531 C 227.738281 164.703125 230.128906 163.058594 229.957031 162.640625 C 229.671875 161.960938 228.277344 162.320312 227.238281 162.878906 C 225.832031 163.644531 221.761719 166.164062 221.761719 166.164062 L 218.796875 167.246094 C 219.4375 166.207031 221.238281 162.355469 220.394531 162.355469 C 219.550781 162.355469 217.234375 165.042969 216.273438 167.808594 C 215.554688 169.878906 215.464844 171.726562 215.464844 172.519531 L 189.460938 205.59375 C 189.460938 205.59375 190.074219 206.558594 191.007812 207.851562 C 193.703125 211.582031 199.988281 212.40625 203.617188 209.570312 C 206.484375 207.328125 208.742188 204.367188 210.960938 201.339844 C 215.136719 195.640625 221.359375 180.511719 222.816406 176.894531 L 228.703125 171.375 C 230.316406 170.328125 232.371094 168.914062 232.222656 168.539062 C 231.96875 167.933594 230.726562 168.25 229.808594 168.742188 Z M 229.808594 168.742188 " fill-opacity="1" fill-rule="nonzero"/><path fill="#00496a" d="M 161.402344 236.910156 C 161.402344 236.910156 164.441406 239.152344 165.644531 242.195312 C 166.847656 245.242188 159.160156 247.199219 146.332031 242.839844 C 137.003906 239.667969 152.757812 229.933594 161.402344 236.910156 Z M 161.402344 236.910156 " fill-opacity="1" fill-rule="nonzero"/><path fill="#00496a" d="M 156.574219 156.0625 L 154.855469 156.0625 C 154.246094 156.0625 153.746094 155.550781 153.746094 154.929688 L 153.746094 153.871094 C 153.746094 153.25 154.246094 152.742188 154.855469 152.742188 L 156.574219 152.742188 C 157.1875 152.742188 157.6875 153.25 157.6875 153.871094 L 157.6875 154.929688 C 157.679688 155.550781 157.1875 156.0625 156.574219 156.0625 Z M 156.574219 156.0625 " fill-opacity="1" fill-rule="nonzero"/><path fill="#4570b4" d="M 147.632812 142.628906 C 148.582031 147.386719 146.109375 151.917969 142.105469 152.746094 C 138.101562 153.578125 134.089844 150.390625 133.132812 145.636719 C 132.183594 140.878906 134.65625 136.347656 138.660156 135.519531 C 142.664062 134.6875 146.683594 137.875 147.632812 142.628906 Z M 147.632812 142.628906 " fill-opacity="1" fill-rule="nonzero"/><path fill="#68a8de" d="M 143.597656 143.46875 C 144.160156 146.273438 142.703125 148.949219 140.34375 149.433594 C 137.980469 149.921875 135.613281 148.042969 135.054688 145.238281 C 134.492188 142.4375 135.949219 139.757812 138.308594 139.273438 C 140.671875 138.777344 143.039062 140.664062 143.597656 143.46875 Z M 143.597656 143.46875 " fill-opacity="1" fill-rule="nonzero"/><path fill="#ff6a76" d="M 133.140625 171.066406 C 133.140625 171.066406 129.511719 171.613281 128.03125 173.960938 C 121.710938 184.027344 109.414062 214.8125 109.414062 214.8125 L 121.277344 220.0625 C 121.277344 220.0625 136.875 201.972656 138.308594 193.367188 C 139.746094 184.761719 133.140625 171.066406 133.140625 171.066406 Z M 133.140625 171.066406 " fill-opacity="1" fill-rule="nonzero"/><path fill="#ffffff" d="M 120.15625 217.4375 L 144.503906 233.292969 L 141.066406 240.925781 C 141.066406 240.925781 119.15625 233.042969 112.417969 227.945312 C 105.6875 222.835938 109.40625 214.8125 109.40625 214.8125 C 109.40625 214.8125 113.140625 214.371094 120.15625 217.4375 Z M 120.15625 217.4375 " fill-opacity="1" fill-rule="nonzero"/><path fill="#ffffff" d="M 143.792969 233.042969 C 143.792969 233.042969 152.003906 232.65625 154.960938 232.65625 C 157.921875 232.65625 163.074219 237.515625 162.507812 239.070312 C 161.933594 240.628906 156.015625 235.863281 156.015625 235.863281 L 155.679688 236.5 C 155.679688 236.5 160.929688 239.707031 161.214844 240.925781 C 161.5 242.144531 160.3125 241.949219 158.59375 241.21875 C 156.875 240.484375 154.296875 238.832031 154.296875 238.832031 L 154.015625 239.175781 C 154.015625 239.175781 158.980469 242.242188 158.980469 243.355469 C 158.980469 244.476562 155.402344 243.207031 152.773438 241.457031 L 152.4375 241.996094 C 152.4375 241.996094 155.6875 243.648438 155.925781 244.71875 C 156.164062 245.785156 154.394531 245.351562 152.4375 244.425781 C 150.480469 243.5 148.664062 243.402344 146.132812 243.011719 C 143.601562 242.625 140.597656 240.746094 140.597656 240.746094 Z M 143.792969 233.042969 " fill-opacity="1" fill-rule="nonzero"/><path fill="#4570b4" d="M 294.746094 188.582031 L 283.070312 247.199219 L 196.566406 247.199219 L 208.171875 188.917969 C 208.421875 187.683594 209.480469 186.800781 210.714844 186.800781 L 293.320312 186.800781 C 294.238281 186.800781 294.933594 187.660156 294.746094 188.582031 Z M 294.746094 188.582031 " fill-opacity="1" fill-rule="nonzero"/><path fill="#00496a" d="M 196.5625 247.199219 L 172.800781 239.460938 C 171.964844 239.183594 171.394531 238.40625 171.394531 237.515625 C 171.394531 236.386719 172.308594 235.476562 173.4375 235.476562 L 198.910156 235.476562 Z M 196.5625 247.199219 " fill-opacity="1" fill-rule="nonzero"/><path fill="#c6606c" d="M 134.195312 173.445312 C 134.195312 173.445312 139.511719 188.507812 136.292969 198.847656 C 136.292969 198.847656 147.167969 186.75 134.195312 173.445312 Z M 134.195312 173.445312 " fill-opacity="1" fill-rule="nonzero"/><path fill="#c6606c" d="M 188.78125 204.71875 C 187.71875 203.3125 186.574219 201.675781 185.523438 199.902344 C 187.71875 191.265625 182.609375 172.03125 182.609375 172.03125 C 193.808594 186.324219 190.683594 199.597656 188.78125 204.71875 Z M 188.78125 204.71875 " fill-opacity="1" fill-rule="nonzero"/><path fill="#375c93" d="M 213.378906 190.277344 L 283.070312 247.199219 L 203.609375 247.199219 Z M 213.378906 190.277344 " fill-opacity="1" fill-rule="nonzero"/><path fill="#a6d6f7" d="M 255.265625 226.546875 C 258.816406 225.085938 260.507812 221.023438 259.046875 217.46875 C 257.589844 213.917969 253.527344 212.222656 249.980469 213.683594 C 246.429688 215.144531 244.738281 219.210938 246.199219 222.761719 C 247.660156 226.316406 251.71875 228.007812 255.265625 226.546875 Z M 255.265625 226.546875 " fill-opacity="1" fill-rule="nonzero"/><path fill="#ffa9b3" d="M 151.734375 161.953125 L 163.492188 173.925781 C 163.492188 173.925781 161.453125 176.8125 158.0625 176.738281 C 154.671875 176.652344 152.757812 172.339844 151.800781 170.089844 C 150.839844 167.839844 148.882812 165.386719 148.882812 165.386719 Z M 151.734375 161.953125 " fill-opacity="1" fill-rule="nonzero"/><path fill="#ffa9b3" d="M 163.492188 173.933594 C 163.492188 173.933594 166.527344 175.78125 169.484375 174.492188 C 172.441406 173.214844 171.644531 171.253906 170.605469 169.183594 C 169.566406 167.121094 168.445312 163.433594 168.445312 163.433594 L 165.070312 161.488281 C 165.070312 161.488281 165.667969 169.363281 163.492188 173.933594 Z M 163.492188 173.933594 " fill-opacity="1" fill-rule="nonzero"/><path fill="#c6606c" d="M 181.625 197.0625 L 151.996094 199.933594 C 151.996094 199.933594 158.636719 204.703125 168.863281 203.261719 C 179.089844 201.816406 181.625 197.0625 181.625 197.0625 Z M 181.625 197.0625 " fill-opacity="1" fill-rule="nonzero"/><path fill="#4570b4" d="M 115.398438 100.628906 L 61.820312 100.628906 C 58.40625 100.628906 55.636719 103.402344 55.636719 106.820312 L 55.636719 121.035156 C 55.636719 124.453125 58.40625 127.226562 61.820312 127.226562 L 106.957031 127.226562 L 121.585938 135.691406 L 121.585938 106.820312 C 121.585938 103.402344 118.8125 100.628906 115.398438 100.628906 Z M 115.398438 100.628906 " fill-opacity="0.4196" fill-rule="nonzero"/><path stroke-linecap="round" transform="matrix(0.526466, 0, 0, 0.5272, 25.718305, 44.693282)" fill="none" stroke-linejoin="round" d="M 64.649226 118.2954 L 170.655357 118.2954 " stroke="#ffffff" stroke-width="1" stroke-opacity="1" stroke-miterlimit="10"/><path stroke-linecap="round" transform="matrix(0.526466, 0, 0, 0.5272, 25.718305, 44.693282)" fill="none" stroke-linejoin="round" d="M 64.649226 131.232265 L 170.655357 131.232265 " stroke="#ffffff" stroke-width="1" stroke-opacity="1" stroke-miterlimit="10"/><path stroke-linecap="round" transform="matrix(0.526466, 0, 0, 0.5272, 25.718305, 44.693282)" fill="none" stroke-linejoin="round" d="M 64.649226 144.169129 L 170.655357 144.169129 " stroke="#ffffff" stroke-width="1" stroke-opacity="1" stroke-miterlimit="10"/><path fill="#c6606c" d="M 118.46875 265.925781 C 119.875 254.320312 110.722656 256.0625 104.460938 262.183594 C 98.203125 268.308594 92.070312 264.890625 99.007812 253.453125 C 105.949219 242.011719 111.027344 238.496094 110.074219 232.738281 C 109.109375 226.980469 104.097656 229.5 95.417969 234.285156 C 86.734375 239.070312 94.9375 226.570312 94.28125 214.707031 C 93.621094 202.847656 81.859375 208.773438 80.871094 218.761719 C 79.886719 228.746094 84.335938 239.925781 78.621094 237.710938 C 72.914062 235.488281 69.457031 222.230469 64.265625 228.492188 C 59.074219 234.75 78.921875 255.980469 78.257812 262.386719 C 77.589844 268.796875 63.308594 249.265625 59.207031 255.695312 C 55.105469 262.125 72.855469 305.0625 88.222656 303.859375 C 107.742188 302.332031 117.066406 277.53125 118.46875 265.925781 Z M 118.46875 265.925781 " fill-opacity="1" fill-rule="nonzero"/><path stroke-linecap="butt" transform="matrix(0.526466, 0, 0, 0.5272, 25.718305, 44.693282)" fill="none" stroke-linejoin="miter" d="M 116.083012 332.828033 C 116.083012 332.828033 111.430822 358.301653 113.285762 390.599358 C 115.148122 422.911882 119.377386 504.185919 119.377386 504.185919 " stroke="#aa4451" stroke-width="1" stroke-opacity="1" stroke-miterlimit="10"/><path stroke-linecap="butt" transform="matrix(0.526466, 0, 0, 0.5272, 25.718305, 44.693282)" fill="none" stroke-linejoin="miter" d="M 84.400631 364.84418 C 84.400631 364.84418 105.821482 390.258524 113.597392 395.860053 C 113.597392 395.860053 141.273102 369.208334 146.548553 364.84418 " stroke="#aa4451" stroke-width="1" stroke-opacity="1" stroke-miterlimit="10"/><path stroke-linecap="butt" transform="matrix(0.526466, 0, 0, 0.5272, 25.718305, 44.693282)" fill="none" stroke-linejoin="miter" d="M 71.742518 415.717326 C 71.742518 415.717326 103.951702 448.118763 116.550457 450.260088 L 163.947893 418.503271 " stroke="#aa4451" stroke-width="1" stroke-opacity="1" stroke-miterlimit="10"/><path fill="#ff6a76" d="M 81.558594 297.273438 C 81.558594 297.273438 88.910156 281 84.949219 272.257812 C 80.992188 263.515625 75.3125 268.644531 73.527344 275.617188 C 71.742188 282.585938 65.984375 282.800781 65.984375 271.816406 C 65.984375 260.832031 68.050781 256.1875 64.921875 252.5625 C 61.792969 248.933594 59.347656 252.839844 55.292969 259.90625 C 51.238281 266.972656 51.667969 254.691406 46.15625 246.648438 C 40.644531 238.601562 34.914062 247.785156 38.46875 255.214844 C 42.03125 262.640625 49.921875 268.585938 44.96875 269.46875 C 40.015625 270.351562 31.941406 262.515625 30.960938 269.125 C 29.984375 275.734375 52.960938 282.160156 55.21875 286.9375 C 57.480469 291.714844 39.140625 284.109375 39 290.375 C 38.859375 296.644531 60.199219 307.636719 69.867188 305.996094 C 79.535156 304.359375 81.558594 297.273438 81.558594 297.273438 Z M 81.558594 297.273438 " fill-opacity="1" fill-rule="nonzero"/><path stroke-linecap="butt" transform="matrix(0.526466, 0, 0, 0.5272, 25.718305, 44.693282)" fill="none" stroke-linejoin="miter" d="M 32.50682 392.333165 C 32.50682 392.333165 85.647151 477.674978 96.828732 504.185919 " stroke="#aa4451" stroke-width="1" stroke-opacity="1" stroke-miterlimit="10"/><path stroke-linecap="butt" transform="matrix(0.526466, 0, 0, 0.5272, 25.718305, 44.693282)" fill="none" stroke-linejoin="miter" d="M 23.79602 432.840518 L 61.169358 439.509005 L 68.863651 407.381717 " stroke="#aa4451" stroke-width="1" stroke-opacity="1" stroke-miterlimit="10"/><path stroke-linecap="butt" transform="matrix(0.526466, 0, 0, 0.5272, 25.718305, 44.693282)" fill="none" stroke-linejoin="miter" d="M 43.547425 471.176908 L 83.473161 478.089906 L 99.937612 441.850385 " stroke="#aa4451" stroke-width="1" stroke-opacity="1" stroke-miterlimit="10"/><path fill="#375c93" d="M 69.058594 310.5 L 104.613281 310.5 L 101.554688 328.460938 L 72.765625 328.460938 Z M 69.058594 310.5 " fill-opacity="1" fill-rule="nonzero"/><path fill="#4570b4" d="M 105.046875 315.464844 L 68.949219 315.464844 C 67.617188 315.464844 66.550781 314.386719 66.550781 313.0625 L 66.550781 311.15625 C 66.550781 309.828125 67.625 308.757812 68.949219 308.757812 L 105.046875 308.757812 C 106.375 308.757812 107.441406 309.835938 107.441406 311.15625 L 107.441406 313.0625 C 107.449219 314.386719 106.375 315.464844 105.046875 315.464844 Z M 105.046875 315.464844 " fill-opacity="1" fill-rule="nonzero"/><g clip-path="url(#8e01065e6f)"><path fill="#4570b4" d="M 233.566406 330.429688 C 247.195312 330.429688 258.246094 319.367188 258.246094 305.722656 C 258.246094 292.074219 247.195312 281.015625 233.566406 281.015625 C 219.933594 281.015625 208.882812 292.074219 208.882812 305.722656 C 208.882812 319.367188 219.933594 330.429688 233.566406 330.429688 Z M 233.566406 330.429688 " fill-opacity="0.4196" fill-rule="nonzero"/></g><path fill="#ffffff" d="M 249.074219 296.597656 L 218.050781 296.597656 C 217.199219 296.597656 216.511719 297.285156 216.511719 298.140625 L 216.511719 315.246094 C 216.511719 316.101562 217.199219 316.789062 218.050781 316.789062 L 249.074219 316.789062 C 249.925781 316.789062 250.613281 316.101562 250.613281 315.246094 L 250.613281 298.140625 C 250.613281 297.285156 249.925781 296.597656 249.074219 296.597656 Z M 249.539062 299.066406 L 234.96875 308.601562 C 234.84375 308.683594 234.699219 308.71875 234.558594 308.71875 C 234.433594 308.71875 234.304688 308.691406 234.191406 308.621094 L 217.226562 299.089844 C 216.867188 298.886719 216.742188 298.429688 216.945312 298.070312 C 217.144531 297.710938 217.601562 297.585938 217.960938 297.789062 L 234.535156 307.097656 L 248.722656 297.808594 C 249.066406 297.585938 249.53125 297.683594 249.753906 298.027344 C 249.976562 298.378906 249.878906 298.839844 249.539062 299.066406 Z M 249.539062 299.066406 " fill-opacity="1" fill-rule="nonzero"/><path fill="#ffa9b3" d="M 252.621094 303.058594 C 257.675781 303.058594 261.773438 298.957031 261.773438 293.898438 C 261.773438 288.839844 257.675781 284.738281 252.621094 284.738281 C 247.570312 284.738281 243.472656 288.839844 243.472656 293.898438 C 243.472656 298.957031 247.570312 303.058594 252.621094 303.058594 Z M 252.621094 303.058594 " fill-opacity="1" fill-rule="nonzero"/></svg>